<svg id="Слой_1" data-name="Слой 1" xmlns="http://www.w3.org/2000/svg" xmlns:xlink="http://www.w3.org/1999/xlink" viewBox="0 0 362.45 564.85"><defs><style>.cls-1{fill:#f2f2f2;}.cls-2{fill:#e6e6e6;}.cls-3{fill:#ccc;}.cls-4{fill:#b3b3b3;}.cls-5{fill:#fff;}.cls-6{fill:url(#Безымянный_градиент_11);}.cls-7{fill:#4c2051;}.cls-8{fill:#e98300;}.cls-9{fill:#934d98;}.cls-10{fill:#ffc4ff;}.cls-11{fill:url(#Безымянный_градиент_11-2);}.cls-12{fill:url(#Безымянный_градиент_11-3);}.cls-13{fill:url(#Безымянный_градиент_11-4);}.cls-14{fill:url(#Безымянный_градиент_11-5);}.cls-15{fill:url(#Безымянный_градиент_11-6);}.cls-16{opacity:0.5;fill:url(#Безымянный_градиент_60);}.cls-17{fill:#ff9b63;}.cls-18{fill:url(#Безымянный_градиент_11-7);}.cls-19{fill:url(#Безымянный_градиент_6);}.cls-20{fill:url(#Безымянный_градиент_6-2);}.cls-21{fill:url(#Безымянный_градиент_6-3);}.cls-22{fill:#9c64a6;}.cls-23{fill:url(#Безымянный_градиент_6-4);}.cls-24{fill:url(#Безымянный_градиент_6-5);}.cls-25{fill:url(#Безымянный_градиент_6-6);}.cls-26{fill:url(#Безымянный_градиент_11-8);}.cls-27{fill:url(#Безымянный_градиент_23);}.cls-28{fill:url(#Безымянный_градиент_20);}.cls-29{fill:url(#Безымянный_градиент_22);}.cls-30{fill:url(#Безымянный_градиент_13);}.cls-31{fill:url(#Безымянный_градиент_23-2);}.cls-32{fill:#939599;}.cls-33{fill:url(#Безымянный_градиент_23-3);}.cls-34{fill:url(#Безымянный_градиент_23-4);}.cls-35{fill:url(#Безымянный_градиент_23-5);}.cls-36{fill:url(#Безымянный_градиент_23-6);}.cls-37{fill:url(#Безымянный_градиент_23-7);}.cls-38{fill:url(#Безымянный_градиент_23-8);}.cls-39{fill:url(#Безымянный_градиент_19);}.cls-40{fill:url(#Безымянный_градиент_19-2);}.cls-41{fill:url(#Безымянный_градиент_23-9);}.cls-42{fill:url(#Безымянный_градиент_23-10);}.cls-43{fill:url(#Безымянный_градиент_11-9);}.cls-44{fill:url(#Безымянный_градиент_11-10);}.cls-45{fill:url(#Безымянный_градиент_11-11);}.cls-46{fill:#ffcc80;}.cls-47{fill:url(#Безымянный_градиент_12);}.cls-48{fill:url(#Безымянный_градиент_24);}.cls-49{fill:url(#Безымянный_градиент_11-12);}</style><linearGradient id="Безымянный_градиент_11" x1="293.65" y1="538.61" x2="313.28" y2="558.08" gradientUnits="userSpaceOnUse"><stop offset="0" stop-color="#3c3b36" stop-opacity="0"/><stop offset="1" stop-opacity="0.3"/></linearGradient><linearGradient id="Безымянный_градиент_11-2" x1="281.11" y1="658.75" x2="290.19" y2="699.95" gradientTransform="translate(75.93 -28.8) rotate(6.61)" xlink:href="#Безымянный_градиент_11"/><linearGradient id="Безымянный_градиент_11-3" x1="296.57" y1="664.94" x2="353.78" y2="731.09" gradientTransform="translate(75.93 -28.8) rotate(6.61)" xlink:href="#Безымянный_градиент_11"/><linearGradient id="Безымянный_градиент_11-4" x1="328.06" y1="654.34" x2="303.95" y2="608.07" xlink:href="#Безымянный_градиент_11"/><linearGradient id="Безымянный_градиент_11-5" x1="233.89" y1="516.6" x2="235.7" y2="511.02" xlink:href="#Безымянный_градиент_11"/><linearGradient id="Безымянный_градиент_11-6" x1="306.23" y1="603.44" x2="377.7" y2="534.51" xlink:href="#Безымянный_градиент_11"/><linearGradient id="Безымянный_градиент_60" x1="258.66" y1="247.7" x2="206.05" y2="191.25" gradientUnits="userSpaceOnUse"><stop offset="0" stop-color="#63206a"/><stop offset="1" stop-color="#ffc4ff"/></linearGradient><linearGradient id="Безымянный_градиент_11-7" x1="258.47" y1="309.9" x2="267.92" y2="295.46" xlink:href="#Безымянный_градиент_11"/><linearGradient id="Безымянный_градиент_6" x1="210.72" y1="452.12" x2="186.68" y2="441.94" gradientUnits="userSpaceOnUse"><stop offset="0" stop-color="#63206a" stop-opacity="0"/><stop offset="1" stop-color="#63206a" stop-opacity="0.3"/></linearGradient><linearGradient id="Безымянный_градиент_6-2" x1="267.7" y1="425.3" x2="311.38" y2="417.72" xlink:href="#Безымянный_градиент_6"/><linearGradient id="Безымянный_градиент_6-3" x1="300" y1="361.72" x2="285.64" y2="378.76" xlink:href="#Безымянный_градиент_6"/><linearGradient id="Безымянный_градиент_6-4" x1="170.91" y1="398.78" x2="159.96" y2="401.18" xlink:href="#Безымянный_градиент_6"/><linearGradient id="Безымянный_градиент_6-5" x1="213.89" y1="391.81" x2="196.93" y2="296.02" xlink:href="#Безымянный_градиент_6"/><linearGradient id="Безымянный_градиент_6-6" x1="288.51" y1="347.13" x2="269.84" y2="284.26" xlink:href="#Безымянный_градиент_6"/><linearGradient id="Безымянный_градиент_11-8" x1="153.42" y1="377.75" x2="149.58" y2="309.9" xlink:href="#Безымянный_градиент_11"/><linearGradient id="Безымянный_градиент_23" x1="296.05" y1="353.25" x2="318.25" y2="353.25" gradientTransform="translate(-133.53 95.11) rotate(-23.04)" gradientUnits="userSpaceOnUse"><stop offset="0" stop-color="#939599"/><stop offset="0.36" stop-color="#fff"/><stop offset="1" stop-color="#939599"/></linearGradient><linearGradient id="Безымянный_градиент_20" x1="203.18" y1="353.92" x2="197.22" y2="341.2" gradientUnits="userSpaceOnUse"><stop offset="0" stop-color="#3f3e40"/><stop offset="0.39" stop-color="#939599"/><stop offset="0.64" stop-color="#fff"/><stop offset="1" stop-color="#939599"/></linearGradient><radialGradient id="Безымянный_градиент_22" cx="67.6" cy="408.33" r="11.26" gradientTransform="translate(140.28 -0.68) rotate(19.62)" gradientUnits="userSpaceOnUse"><stop offset="0.2" stop-color="#fff"/><stop offset="0.63" stop-color="#939599"/><stop offset="1" stop-color="#3f3e40"/></radialGradient><linearGradient id="Безымянный_градиент_13" x1="269.37" y1="365.58" x2="269.37" y2="353.55" gradientTransform="translate(-133.53 95.11) rotate(-23.04)" gradientUnits="userSpaceOnUse"><stop offset="0" stop-color="#3f3e40"/><stop offset="0.45" stop-color="#939599"/><stop offset="0.86" stop-color="#fff"/><stop offset="1" stop-color="#bcbec0"/></linearGradient><linearGradient id="Безымянный_градиент_23-2" x1="141.14" y1="357.47" x2="151.24" y2="357.47" xlink:href="#Безымянный_градиент_23"/><linearGradient id="Безымянный_градиент_23-3" x1="157.07" y1="356.97" x2="167.17" y2="356.97" xlink:href="#Безымянный_градиент_23"/><linearGradient id="Безымянный_градиент_23-4" x1="173" y1="356.46" x2="183.1" y2="356.46" xlink:href="#Безымянный_градиент_23"/><linearGradient id="Безымянный_градиент_23-5" x1="188.93" y1="355.95" x2="199.03" y2="355.95" xlink:href="#Безымянный_градиент_23"/><linearGradient id="Безымянный_градиент_23-6" x1="204.86" y1="355.45" x2="214.96" y2="355.45" xlink:href="#Безымянный_градиент_23"/><linearGradient id="Безымянный_градиент_23-7" x1="220.79" y1="354.94" x2="230.89" y2="354.94" xlink:href="#Безымянный_градиент_23"/><linearGradient id="Безымянный_градиент_23-8" x1="236.72" y1="354.43" x2="246.82" y2="354.43" xlink:href="#Безымянный_градиент_23"/><linearGradient id="Безымянный_градиент_19" x1="91.28" y1="389.07" x2="96.65" y2="400.11" gradientUnits="userSpaceOnUse"><stop offset="0" stop-color="#666"/><stop offset="0.48" stop-color="#939599"/></linearGradient><linearGradient id="Безымянный_градиент_19-2" x1="108.23" y1="380.8" x2="113.66" y2="391.96" xlink:href="#Безымянный_градиент_19"/><linearGradient id="Безымянный_градиент_23-9" x1="86.62" y1="355.55" x2="97.63" y2="355.55" xlink:href="#Безымянный_градиент_23"/><linearGradient id="Безымянный_градиент_23-10" x1="105.45" y1="354.95" x2="116.46" y2="354.95" xlink:href="#Безымянный_градиент_23"/><linearGradient id="Безымянный_градиент_11-9" x1="240.41" y1="327.08" x2="232.09" y2="344.99" xlink:href="#Безымянный_градиент_11"/><linearGradient id="Безымянный_градиент_11-10" x1="248.04" y1="322.03" x2="241.04" y2="337.6" xlink:href="#Безымянный_градиент_11"/><linearGradient id="Безымянный_градиент_11-11" x1="257.27" y1="355.34" x2="250.01" y2="367.88" xlink:href="#Безымянный_градиент_11"/><linearGradient id="Безымянный_градиент_12" x1="262.16" y1="545.06" x2="391.03" y2="545.06" gradientUnits="userSpaceOnUse"><stop offset="0" stop-color="#b05500" stop-opacity="0"/><stop offset="1" stop-color="#b05500" stop-opacity="0.3"/></linearGradient><linearGradient id="Безымянный_градиент_24" x1="370.39" y1="626.23" x2="384.79" y2="626.23" gradientUnits="userSpaceOnUse"><stop offset="0" stop-opacity="0.3"/><stop offset="1" stop-color="#3c3b36" stop-opacity="0"/></linearGradient><linearGradient id="Безымянный_градиент_11-12" x1="402.25" y1="627.37" x2="400.69" y2="634.94" xlink:href="#Безымянный_градиент_11"/></defs><polygon class="cls-1" points="306.65 303.2 306.65 546.97 123.58 564.85 123.58 321.08 181.13 315.46 185.06 315.08 259.89 307.77 306.65 303.2"/><polygon class="cls-2" points="306.65 303.19 123.59 321.07 55.8 282.93 214.24 269.81 306.65 303.19"/><polygon class="cls-3" points="123.59 321.07 123.59 564.85 55.8 513.56 55.8 282.93 123.59 321.07"/><path class="cls-4" d="M202.51,563.12c6.76-.83,13.53-1.56,20.3-2.34l20.31-2.15c13.55-1.42,27.11-2.69,40.67-4s27.13-2.49,40.71-3.63l20.38-1.66c6.8-.49,13.59-1,20.4-1.48-6.76.84-13.53,1.56-20.3,2.34l-20.31,2.16c-13.55,1.41-27.11,2.68-40.67,4s-27.13,2.49-40.72,3.62l-20.37,1.67C216.11,562.13,209.32,562.68,202.51,563.12Z" transform="translate(-68.78 -204)"/><path class="cls-4" d="M250.53,524.48a75,75,0,0,1,.78,7.72c.16,2.58.2,5.15.22,7.72s-.06,5.15-.22,7.72a71.83,71.83,0,0,1-.78,7.72,77.33,77.33,0,0,1-.78-7.72c-.16-2.57-.2-5.14-.22-7.72s.07-5.14.23-7.72A75,75,0,0,1,250.53,524.48Z" transform="translate(-68.78 -204)"/><path class="cls-4" d="M301.57,536c0,7.1-5.46,12.88-12.21,12.88a11.73,11.73,0,0,1-6.85-2.23A13.08,13.08,0,0,1,277.17,536c0-7.11,5.46-12.88,12.19-12.88a11.87,11.87,0,0,1,9.12,4.33A13.18,13.18,0,0,1,301.57,536Z" transform="translate(-68.78 -204)"/><path class="cls-5" d="M303.63,536.55c0,7.1-5.46,12.88-12.21,12.88a11.68,11.68,0,0,1-6.84-2.23,13.08,13.08,0,0,1-5.35-10.65c0-7.11,5.46-12.88,12.19-12.88a11.87,11.87,0,0,1,9.12,4.33A13.18,13.18,0,0,1,303.63,536.55Z" transform="translate(-68.78 -204)"/><path class="cls-6" d="M305.87,538.63c0,7.11-5.46,12.87-12.19,12.87a11.87,11.87,0,0,1-9.1-4.3,11.68,11.68,0,0,0,6.84,2.23c6.75,0,12.21-5.78,12.21-12.88a13.18,13.18,0,0,0-3.09-8.55A13,13,0,0,1,305.87,538.63Z" transform="translate(-68.78 -204)"/><path class="cls-4" d="M291.43,525.72a7.84,7.84,0,0,1,.73,2.19,11.91,11.91,0,0,1,0,4.4,8,8,0,0,1-.74,2.2,7.72,7.72,0,0,1-.74-2.2,12.2,12.2,0,0,1,0-4.4A7.87,7.87,0,0,1,291.43,525.72Z" transform="translate(-68.78 -204)"/><path class="cls-4" d="M349.89,633.34a67.75,67.75,0,0,0-2.21-9.12C340,599.63,319,580.76,292.46,577.69c-36.35-4.21-69.37,22.89-73.73,60.52a70.4,70.4,0,0,0,2.45,28.34s0,0,0,0a67.57,67.57,0,0,0,31.58,39.7A64.17,64.17,0,0,0,276.67,714c26.53,3.08,51.26-10.49,64.4-32.66.14-.26.29-.5.43-.76a70.86,70.86,0,0,0,8.39-47.22Z" transform="translate(-68.78 -204)"/><path class="cls-7" d="M320,681.8a29.29,29.29,0,0,0,6.56,2.36,52.5,52.5,0,0,1-45.74,18.08c-29.14-3.38-49.92-30.56-46.42-60.71a57.86,57.86,0,0,1,1.92-9.53c7.36-25.06,31.19-42,57.15-39a52.51,52.51,0,0,1,40.4,28.06,29.63,29.63,0,0,0-7.26.87,30.81,30.81,0,0,0-12.18,6.18,31.63,31.63,0,0,0-5,5.16,32.79,32.79,0,0,0-1.22,38.14,30.15,30.15,0,0,0,3.5,4.3A30.53,30.53,0,0,0,320,681.8Z" transform="translate(-68.78 -204)"/><path class="cls-8" d="M326.65,622a30.81,30.81,0,0,0-12.18,6.18,12.21,12.21,0,0,0-2.85-2.67c-7.31-4.86-21.29-7.77-28.23-7.29-1.14.08-5.14.44-5.9-1.28a2.3,2.3,0,0,1,.1-1.68c.72-2.05,2.85-3,5.17-4,7.9-3.41,7.69-3.35,7.88-3.4,5.86-1.72,12.25-2.29,16-1.42C315.7,608.54,322.24,615.37,326.65,622Z" transform="translate(-68.78 -204)"/><path class="cls-9" d="M241.71,641.91c1.1-4.62,6.11-22.91,23.48-32.83a46.22,46.22,0,0,1,24.45-5.94c5.86.12,12.95,1.39,13,2.91.06,2.49-18.81,5.28-18.7,6,.06.41,6.51-1.45,13.48,1.25,1.11.43,6.68,2.58,6.55,4.83-.23,4-18.11.3-30.7,10.23-14.06,11.08-19,37.19-11,50.57,1.92,3.2,5,6.29,4.14,7.37-1.11,1.48-9.14-1.26-13.82-7.4-3.79-5-4.61-11.16-4.93-11.06s1.61,6.59.54,7.11c-.92.44-3.65-3.82-3.9-4.21C237.56,660.14,241.26,643.78,241.71,641.91Z" transform="translate(-68.78 -204)"/><path class="cls-10" d="M320,681.8a39.7,39.7,0,0,1-9.89,7.48c-15.72,8.41-30.79,3.05-34.21,1.85a41,41,0,0,1-18.77-13.43c-3.88-5.13-6.18-11-5.31-11.68,1.27-.95,9.44,9.19,11,8,.76-.58-1.11-3.36-.2-4.37,1.42-1.54,7.43,3.23,13.37,5.72.86.37,14.89,6,27-.32a27.77,27.77,0,0,0,5.23-3.59,30.15,30.15,0,0,0,3.5,4.3A30.53,30.53,0,0,0,320,681.8Z" transform="translate(-68.78 -204)"/><path class="cls-5" d="M350.3,626c-7.71-24.59-28.69-43.46-55.22-46.53-36.35-4.22-69.37,22.89-73.73,60.52-3.33,28.68,11,55.22,34.05,68.08a64.11,64.11,0,0,0,23.89,7.69c26.52,3.08,51.26-10.49,64.4-32.66.14-.26.29-.5.43-.76A70.85,70.85,0,0,0,350.3,626Zm-69.44,76.22c-25.46-3-44.55-24.08-46.61-49.5a56.19,56.19,0,0,1,.19-11.21c3.49-30.16,29.93-51.87,59.07-48.5a52.51,52.51,0,0,1,40.4,28.06c-15.55-.05-29.05,12-31,28.38a32.39,32.39,0,0,0,4.92,21.37,30.45,30.45,0,0,0,18.72,13.32A52.5,52.5,0,0,1,280.86,702.24Z" transform="translate(-68.78 -204)"/><path class="cls-4" d="M326.6,684.16A53.33,53.33,0,0,1,298,701.72c-.69.19-1.4.31-2.1.43s-1.4.27-2.11.37c-1.42.15-2.83.39-4.27.43a51.13,51.13,0,0,1-8.57-.18,55.76,55.76,0,0,1-16.48-4.61l-3.84-1.95c-1.22-.75-2.41-1.55-3.63-2.32l-.9-.58-.85-.67-1.68-1.34c-.56-.44-1.14-.88-1.68-1.34l-1.55-1.5a56.41,56.41,0,0,1-5.78-6.38l-2.47-3.54c-.81-1.19-1.45-2.48-2.18-3.72a57.59,57.59,0,0,1-5.76-16.2A57.76,57.76,0,0,1,238,624.79a58.17,58.17,0,0,1,9.26-14.52,52,52,0,0,1,13.25-11l1.85-1.11c.64-.33,1.3-.63,1.95-.94l2-.93,1-.46,1-.37c1.36-.48,2.72-1,4.08-1.45l4.21-1.05a56.16,56.16,0,0,1,17.21-.79A53,53,0,0,1,310.31,597a53.94,53.94,0,0,1,24.29,23.73l.6,1.15h-1.29a29.73,29.73,0,0,0-20.4,8,32.42,32.42,0,0,0-5.08,41.34A30.53,30.53,0,0,0,326.6,684.16Zm0,0a29.84,29.84,0,0,1-10.5-4.53,31.27,31.27,0,0,1-8.11-8.15,33,33,0,0,1,4.65-42.57,31.16,31.16,0,0,1,21.27-8.59l-.68,1.13a53.19,53.19,0,0,0-23.69-22.85,51.23,51.23,0,0,0-16-4.62,54.38,54.38,0,0,0-16.6.82l-4.05,1c-1.31.45-2.61.95-3.92,1.41l-1,.36-.94.45-1.88.9-1.88.91L261.54,601a58.5,58.5,0,0,0-6.83,4.78l-3.1,2.79c-1,1-1.9,2-2.86,3a55.87,55.87,0,0,0-9,14,55.89,55.89,0,0,0-3.86,32.75A56.47,56.47,0,0,0,241.39,674c.69,1.21,1.3,2.47,2.07,3.64l2.36,3.46a55,55,0,0,0,5.54,6.27l1.49,1.48c.53.45,1.08.88,1.62,1.33l1.63,1.32.81.66.88.58c1.17.76,2.32,1.55,3.51,2.3L265,697a54.76,54.76,0,0,0,16.06,4.7,52.13,52.13,0,0,0,16.76-.74A53.67,53.67,0,0,0,326.6,684.16Z" transform="translate(-68.78 -204)"/><path class="cls-4" d="M326.6,684.16A53.33,53.33,0,0,1,298,701.72c-.69.19-1.4.31-2.1.43s-1.4.27-2.11.37c-1.42.15-2.83.39-4.27.43a51.13,51.13,0,0,1-8.57-.18,55.76,55.76,0,0,1-16.48-4.61l-3.84-1.95c-1.22-.75-2.41-1.55-3.63-2.32l-.9-.58-.85-.67-1.68-1.34c-.56-.44-1.14-.88-1.68-1.34l-1.55-1.5a56.41,56.41,0,0,1-5.78-6.38l-2.47-3.54c-.81-1.19-1.45-2.48-2.18-3.72a57.59,57.59,0,0,1-5.76-16.2A57.76,57.76,0,0,1,238,624.79a58.17,58.17,0,0,1,9.26-14.52,52,52,0,0,1,13.25-11l1.85-1.11c.64-.33,1.3-.63,1.95-.94l2-.93,1-.46,1-.37c1.36-.48,2.72-1,4.08-1.45l4.21-1.05a56.16,56.16,0,0,1,17.21-.79A53,53,0,0,1,310.31,597a53.94,53.94,0,0,1,24.29,23.73l.6,1.15h-1.29a29.73,29.73,0,0,0-20.4,8,32.42,32.42,0,0,0-5.08,41.34A30.53,30.53,0,0,0,326.6,684.16Zm0,0a29.84,29.84,0,0,1-10.5-4.53,31.27,31.27,0,0,1-8.11-8.15,33,33,0,0,1,4.65-42.57,31.16,31.16,0,0,1,21.27-8.59l-.68,1.13a53.19,53.19,0,0,0-23.69-22.85,51.23,51.23,0,0,0-16-4.62,54.38,54.38,0,0,0-16.6.82l-4.05,1c-1.31.45-2.61.95-3.92,1.41l-1,.36-.94.45-1.88.9-1.88.91L261.54,601a58.5,58.5,0,0,0-6.83,4.78l-3.1,2.79c-1,1-1.9,2-2.86,3a55.87,55.87,0,0,0-9,14,55.89,55.89,0,0,0-3.86,32.75A56.47,56.47,0,0,0,241.39,674c.69,1.21,1.3,2.47,2.07,3.64l2.36,3.46a55,55,0,0,0,5.54,6.27l1.49,1.48c.53.45,1.08.88,1.62,1.33l1.63,1.32.81.66.88.58c1.17.76,2.32,1.55,3.51,2.3L265,697a54.76,54.76,0,0,0,16.06,4.7,52.13,52.13,0,0,0,16.76-.74A53.67,53.67,0,0,0,326.6,684.16Z" transform="translate(-68.78 -204)"/><path class="cls-5" d="M240.93,653.81a48.06,48.06,0,0,1,1.33-23.45,43.47,43.47,0,0,1,5.11-10.83,47.12,47.12,0,0,1,7.81-9A46.31,46.31,0,0,1,276,600.19a49.24,49.24,0,0,1,11.46-1,49.9,49.9,0,0,1,11.24,1.77,71.37,71.37,0,0,0-11.22-.17,58.27,58.27,0,0,0-10.93,1.89,48.93,48.93,0,0,0-10.26,4.09,45.85,45.85,0,0,0-21.76,24.45A59.68,59.68,0,0,0,240.93,653.81Z" transform="translate(-68.78 -204)"/><path class="cls-11" d="M326.6,684.16a52.5,52.5,0,0,1-45.74,18.08c-25.46-3-44.55-24.08-46.61-49.5,9.94,15.57,26.57,25.53,44.75,26a51.8,51.8,0,0,0,28.88-7.92A30.45,30.45,0,0,0,326.6,684.16Z" transform="translate(-68.78 -204)"/><path class="cls-5" d="M352.51,635.14A67.6,67.6,0,0,0,350.3,626c-7.71-24.6-28.69-43.47-55.22-46.54-36.35-4.21-69.37,22.89-73.73,60.52a70.28,70.28,0,0,0,2.45,28.35l0,0a67.57,67.57,0,0,0,31.58,39.7,64.12,64.12,0,0,0,23.89,7.7c26.52,3.07,51.26-10.5,64.4-32.67.14-.25.29-.5.43-.76A70.08,70.08,0,0,0,353,655.28,70.82,70.82,0,0,0,352.51,635.14ZM234.24,652.75a57.07,57.07,0,0,1,.2-11.22c3.49-30.15,29.93-51.87,59.07-48.49a52.5,52.5,0,0,1,40.4,28.05,31.62,31.62,0,0,0-3.23.17c-14.15,1.5-26,13-27.72,28.21a32.55,32.55,0,0,0,1.88,15.33,31.15,31.15,0,0,0,3,6.05,30.49,30.49,0,0,0,18.72,13.32,54.07,54.07,0,0,1-5.41,5.4,52.06,52.06,0,0,1-40.33,12.67c-21.18-2.46-38-17.49-44.19-37.11A56.68,56.68,0,0,1,234.24,652.75Z" transform="translate(-68.78 -204)"/><path class="cls-12" d="M355,663.45A70.36,70.36,0,0,1,346,690.54c-.14.25-.29.5-.43.76C332.48,713.46,307.74,727,281.21,724a64.17,64.17,0,0,1-23.89-7.69,67.93,67.93,0,0,1-33.5-47.88,67.57,67.57,0,0,0,31.58,39.7,64.12,64.12,0,0,0,23.89,7.7c26.52,3.07,51.26-10.5,64.4-32.67.14-.25.29-.5.43-.76A70.08,70.08,0,0,0,353,655.28a70.82,70.82,0,0,0-.53-20.14A70.23,70.23,0,0,1,355,663.45Z" transform="translate(-68.78 -204)"/><path class="cls-13" d="M332.63,628.17c-1.28.15-12,1.59-17.94,11.34-.65,1-5.83,9.83-2.07,20.08,4.65,12.64,18.44,15.32,19,15.42a42,42,0,0,0,1-46.84Z" transform="translate(-68.78 -204)"/><path class="cls-14" d="M208.89,496.29a57.51,57.51,0,0,0,44.94,22.78L265,518Z" transform="translate(-68.78 -204)"/><path class="cls-15" d="M375.43,655.86v15.73c-7,5.24-14.74,7.37-20.32,4.75-6.89-3.23-9.34-13.19-11.66-22.58a68.39,68.39,0,0,1-1.49-8.19A116.66,116.66,0,0,1,330.3,628c-7.68-14.28-11-27.67-13.17-36.79-.57-2.37-1-4.34-1.28-5.71l-1.68-.79a182.49,182.49,0,0,1-11.08-44.32c-4.46-.6-13.18-2.5-18.9-9.67a21.7,21.7,0,0,1-1.85-2.71l-2.23-.39q-5.33-1.3-11.09-3.08c-5.47-1.7-10.53-3.54-15.18-5.42l74.83-7.31Q352.05,583.83,375.43,655.86Z" transform="translate(-68.78 -204)"/><path class="cls-7" d="M310.36,265.89c-1.37,4.73.58,6.71-.2,10.25-.87,4-4.63,9.06-18.39,13-.56,0-1.6-.09-2.91-.06-15.68.34-22.64,11.39-38.17,12.7-4,.34-6.47-.16-8.46-1.62-3.63-2.68-2.47-6.15-6.07-10.25-4.11-4.69-7.49-2.27-11.64-7-.68-.79-4.37-5.62-4.26-11.24.09-4.82,2.66-6.53,1.75-10.63-.81-3.67-3-3.32-3.92-7.36a12.06,12.06,0,0,1,2.07-9.64c2.38-3,4.37-1.49,6.28-4,2.37-3.14-1.21-9.48,2.05-15.43a11.36,11.36,0,0,1,4-4.05c5.58-3.84,9-.62,12.73-3.74,3.53-2.94,1.74-6.8,5.92-10.23a11,11,0,0,1,7.11-2.49c5.34.28,6,5.24,10.74,5.67s5.87-4.34,12-4.28a11.85,11.85,0,0,1,7,2.21c4.39,3.26,3,7.54,6.88,10,3.44,2.22,5.64-.49,9.45,2s4.77,7,4.88,7.43c1,4.43-1.3,5.65-.27,9.42,1.13,4.13,4.22,3.76,6.42,8.67a16.31,16.31,0,0,1,1.23,9.23C315.58,259.84,312,260.23,310.36,265.89Z" transform="translate(-68.78 -204)"/><path class="cls-16" d="M292.46,214.9a12.65,12.65,0,0,0-3.64-.54c-6.11-.06-7.26,4.7-12,4.28s-5.39-5.39-10.74-5.66h-.44a11.21,11.21,0,0,0-6.67,2.49c-4.18,3.43-2.39,7.29-5.92,10.23-3.75,3.12-7.15-.09-12.73,3.74a11.45,11.45,0,0,0-4,4c-3.26,6,.32,12.29-2.05,15.43-1.91,2.53-3.9,1-6.28,4a12.06,12.06,0,0,0-2.07,9.64c.92,4,3.11,3.69,3.92,7.36.91,4.1-1.65,5.81-1.75,10.63a15,15,0,0,0,1,5.41,10.15,10.15,0,0,1-4.53-3.13c-.68-.78-4.37-5.62-4.26-11.23.09-4.83,2.66-6.54,1.75-10.64-.81-3.66-3-3.31-3.92-7.36a12.06,12.06,0,0,1,2.07-9.64c2.38-3,4.37-1.49,6.28-4,2.37-3.14-1.21-9.47,2.05-15.43a11.45,11.45,0,0,1,4-4.05c5.58-3.83,9-.62,12.73-3.74,3.53-2.94,1.74-6.79,5.92-10.22a11,11,0,0,1,7.11-2.49c4.51.23,5.69,3.79,8.79,5.16a6.27,6.27,0,0,0,1.95.5c4.72.42,5.87-4.34,12-4.28a11.85,11.85,0,0,1,7,2.21C291,209.86,291.3,212.6,292.46,214.9Z" transform="translate(-68.78 -204)"/><path class="cls-17" d="M301.82,260.35c0,.3,0,.7-.08,1.34a132.19,132.19,0,0,1-3.2,21.22c-3.09,12-5.26,20.58-12.93,25.87a24.08,24.08,0,0,1-5.68,2.89,14.69,14.69,0,0,0-.51,4.28,14.4,14.4,0,0,0,.69,4.05,13.58,13.58,0,0,0,4,6c-2.41,2.26-11.86,10.58-25.83,10.37-17.87-.27-28.5-14.27-29.95-16.26a7.92,7.92,0,0,0,3.94-.26c6.3-2.17,8.54-12.76,10.72-23.09a119.16,119.16,0,0,0,2.12-14.31,6.51,6.51,0,0,1-3.94,2.43c-3.6.51-6.33-3.09-6.73-3.62a10,10,0,0,1-.74-1.14c-1.75-3.07-2.24-10,1.65-14,.71-.74,3-3.09,6-2.48,2.45.5,4.47,2.87,5.15,6a32.41,32.41,0,0,0,5.75-9.5c3.41-8.77,1.28-14.83,5.15-17.79,2.46-1.9,3.75.26,9.42-1.57s5.89-4.49,9.36-4.46c4.63,0,6,4,10.49,5.46,4.73,1.56,6.94-1.88,10.21.21,1.77,1.13,2.4,3.11,3.66,7.09A39.92,39.92,0,0,1,301.82,260.35Z" transform="translate(-68.78 -204)"/><path class="cls-18" d="M279.93,311.67l-.51,4.28c-.87.08-1.81.14-2.8.14,0,0-1.55,0-3.13-.15-15.8-1.61-21.89-10.29-21.89-10.29-4.33-6.15-4.33-13.53-4.07-17.08a33.76,33.76,0,0,0,6.8,12.62C263.94,312.21,277.46,311.79,279.93,311.67Z" transform="translate(-68.78 -204)"/><path class="cls-10" d="M324.16,412.54a13.09,13.09,0,0,1-4.32,4.45c-10.23,6.11-25.94-7.28-28.31-9.35-2.92,12.12-1.84,20.79-.29,26.49,1.83,6.73,5,11.74,6.58,22.13a71.7,71.7,0,0,1,.86,11.84c-2.41-.4-4.72-.68-6.93-.86a73.71,73.71,0,0,0-26.83,2.42c-1,.27-1.87.56-2.76.85-11.54,3.83-17.77,9.35-33.29,14.11a114.27,114.27,0,0,1-24.31,4.68,29.85,29.85,0,0,1-3.86-5.61c-2-3.71-6.3-13.86,1.28-53.61,1.75-9.15,2.88-13.34,1.43-19.33-.14-.6-.3-1.17-.47-1.73,0,0,0,0,0,0l0,0c-1.23-4-3.06-7.31-4.07-13.76a50.82,50.82,0,0,1-.58-9.66c-8.43,14.53-21.12,34.26-35.76,49.24-4.87,5-11.31,10.82-17.45,9-4.65-1.35-7.21-6.51-8-8.1-2-4.11-2.17-7.83-1.43-22.75.28-5.6.58-10.62.86-15l7.26-2.28,7.62-2.39c1-1.25,2.27-2.77,3.68-4.55,2.31-2.91,5.1-6.51,8.13-10.66,3.17-4.33,5.8-8.12,8-11.48,10.95-16.54,12.31-22.69,22.5-31.28,5.33-4.49,13-11.66,24.23-15.71a55.32,55.32,0,0,1,18.61-3.21,24.17,24.17,0,0,0,8.66,8.32c10.08,5.52,23.73,2.18,34.93-8.07A43.34,43.34,0,0,1,291.72,318a29.43,29.43,0,0,1,11.82,6.07,24.48,24.48,0,0,1,2.57,2.53,29.94,29.94,0,0,1,5.38,9C321.89,360.85,335.73,394.48,324.16,412.54Z" transform="translate(-68.78 -204)"/><path class="cls-19" d="M219.09,434.16a22.27,22.27,0,0,1-5.47-2.23c-3.36-1.93-4.2-3.58-5.47-3.36-2.31.41-3.19,6.5-3.93,12.11-2,15.26-3,22.89-2.82,27.91a96.84,96.84,0,0,0,3.16,20.71,29.85,29.85,0,0,1-3.86-5.61c-2-3.71-6.3-13.86,1.28-53.61,1.75-9.15,2.88-13.34,1.43-19.33-.14-.6-.3-1.17-.47-1.73a66.89,66.89,0,0,0,7.26,14.53A62.14,62.14,0,0,0,219.09,434.16Z" transform="translate(-68.78 -204)"/><path class="cls-20" d="M298.68,468.1c-2.41-.4-4.72-.68-6.93-.86-.15-.42-.29-.84-.42-1.25a91.91,91.91,0,0,1-4.49-21.81c-.2-2.48-.4-6.6-1.83-7s-2.93,3.37-6.22,7.37a32.65,32.65,0,0,1-9.33,7.77,174.57,174.57,0,0,0,10.61-20.52c4.56-10.44,6.81-15.74,5.85-19.92-1.91-8.33-10.33-8.64-19.2-21.12a53.31,53.31,0,0,1-4.74-8.08c-.79-1.63-1.38-3.08-1.84-4.27h0l0,0s0,0,0,0l8.41,7.83,22.92,21.33c-2.92,12.12-1.84,20.79-.29,26.49,1.83,6.73,5,11.74,6.58,22.13A71.7,71.7,0,0,1,298.68,468.1Z" transform="translate(-68.78 -204)"/><path class="cls-21" d="M307.09,380.82l-27-22.53-.22-.18.09,0a6.42,6.42,0,0,0,3.93-.22c3.4-1.32,4.46-5.14,4.57-5.58a26.55,26.55,0,0,0,1.8,8.21A25.81,25.81,0,0,0,294,367,103.46,103.46,0,0,0,307.09,380.82Z" transform="translate(-68.78 -204)"/><path class="cls-22" d="M158.56,397.32h0A32,32,0,0,1,143.48,401c-3.88-.1-6.65-1.19-7-3.08-.43-2.22,2.62-4.9,7.3-6.8a31.77,31.77,0,0,1,5-1.57,24.67,24.67,0,0,1,10.75-.39,7.79,7.79,0,0,1,2,.73,2.89,2.89,0,0,1,1.62,1.93C163.43,393.58,161.62,395.61,158.56,397.32Z" transform="translate(-68.78 -204)"/><path class="cls-22" d="M272,373.52c-4.88,4.43-9.82,6.55-11.75,5,0,0,0,0,0,0l0,0h0a1.75,1.75,0,0,1-.2-.19c-1.48-1.76.1-6.1,3.6-10.59a21,21,0,0,1,3.78,2A27.63,27.63,0,0,1,272,373.52Z" transform="translate(-68.78 -204)"/><path class="cls-23" d="M166.37,395.61c.9,0,1.46-.73,4.22-3.44,1.13-1.11,2.06-2,2.66-2.55q-3.36,6.27-6.64,13.24c-1,2.07-1.9,4.11-2.79,6.14q-.36-8.58-.73-17.17C163.72,393.37,164.87,395.55,166.37,395.61Z" transform="translate(-68.78 -204)"/><path class="cls-24" d="M260.14,378.44c.46,1.19,1.05,2.64,1.84,4.27a26.52,26.52,0,0,1-3.28-1.78,39.22,39.22,0,0,1-8.06-6.85c-3.34-3.72-5.08-5.64-6-8.94-.85-3-.35-4.73-1.91-7.9a16,16,0,0,0-2.18-3.29c-.14-.16-.27-.32-.43-.48L161.47,389.9a7.79,7.79,0,0,0-2-.73,24.18,24.18,0,0,1,1.42-3.95c2.23-4.87,4.48-5.48,7-9.85l58-26.87a4.52,4.52,0,0,1-2.82-1.87,2.93,2.93,0,0,1-.49-2.2c.34-1.15,1.74-1.55,2.06-1.64a2.83,2.83,0,0,1,.4-2.38,1.41,1.41,0,0,1,.52-.35c.62-.24,1.62-.12,3.55-.08,1.24,0,2.24,0,2.91,0a59,59,0,0,1,6-3.93,11.76,11.76,0,0,1,1.67,1.3,9.74,9.74,0,0,1,.83.88,16,16,0,0,1,2.18,3.29c1.56,3.17,1.06,4.89,1.91,7.9a13.5,13.5,0,0,0,.62,1.73c1,2.35,2.68,4.19,5.4,7.21a39.22,39.22,0,0,0,8.06,6.85,29.33,29.33,0,0,0,4.84,2.46c-3.5,4.49-5.08,8.83-3.6,10.59a1.75,1.75,0,0,0,.2.19Z" transform="translate(-68.78 -204)"/><path class="cls-25" d="M303.54,324.07,267.23,340.9l-.32-.59c-2.27-4.14-3.72-6.78-4.85-8.57L291.72,318A29.43,29.43,0,0,1,303.54,324.07Z" transform="translate(-68.78 -204)"/><path class="cls-17" d="M155.24,377.1a23.2,23.2,0,0,1,3.53-4.62,22.78,22.78,0,0,1,4.91-3.73,21.86,21.86,0,0,1,4.08-1.8c1.22-.79,2.29-1.38,3.09-1.81a12.85,12.85,0,0,1,4.91-1.74,5.88,5.88,0,0,1,1.6.12c.84.16,1.32.26,1.49.6.36.75-.93,2.2-1.33,2.65a12.17,12.17,0,0,1-3.47,2.7c-2.22,1.2-2.69,2.66-5.74,6.67a76.67,76.67,0,0,1-6.73,7.75Q158.42,380.5,155.24,377.1Z" transform="translate(-68.78 -204)"/><path class="cls-17" d="M170.38,359.08l-6-10.46a7.27,7.27,0,0,1-3.28,3.09,6.25,6.25,0,0,1-2.91.53L151.67,355a4.4,4.4,0,0,1-2.33,2.05,3.92,3.92,0,0,1-2.94-.15q-.89,3.09-1.78,6.18c-.1.43-.27,1.16-.46,2.09-.65-.89-1.31-1.8-2-2.76C141,360.69,140,359,139,357.45l-4.57,3.45a29.69,29.69,0,0,0,2.63,4.3,28.62,28.62,0,0,0,5.78,5.89c.23-.64.47-1.28.7-1.93a81,81,0,0,0-.06,15.09c0,.48.11,2.08.22,4.29,0,.68.06,1.49.07,2.59,0,2.87,0,6.19-.28,9.88a32,32,0,0,0,15.08-3.68h0a29.5,29.5,0,0,1,.94-8.15,24.18,24.18,0,0,1,1.42-3.95c2.7-5.9,5.73-6.16,7.83-11.44a23.66,23.66,0,0,0,1.33-5.5A37.7,37.7,0,0,0,170.38,359.08Z" transform="translate(-68.78 -204)"/><path class="cls-26" d="M170.38,359.08l-6-10.46a7.27,7.27,0,0,1-3.28,3.09,6.25,6.25,0,0,1-2.91.53L151.67,355a4.4,4.4,0,0,1-2.33,2.05,3.92,3.92,0,0,1-2.94-.15q-.89,3.09-1.78,6.18c-.1.43-.27,1.16-.46,2.09-.65-.89-1.31-1.8-2-2.76C141,360.69,140,359,139,357.45l-4.57,3.45a29.69,29.69,0,0,0,2.63,4.3,28.62,28.62,0,0,0,5.78,5.89c.23-.64.47-1.28.7-1.93a81,81,0,0,0-.06,15.09c0,.48.11,2.08.22,4.29,0,.68.06,1.49.07,2.59,0,2.87,0,6.19-.28,9.88a32,32,0,0,0,15.08-3.68h0a29.5,29.5,0,0,1,.94-8.15,24.18,24.18,0,0,1,1.42-3.95c2.7-5.9,5.73-6.16,7.83-11.44a23.66,23.66,0,0,0,1.33-5.5A37.7,37.7,0,0,0,170.38,359.08Z" transform="translate(-68.78 -204)"/><path class="cls-27" d="M298.06,296.85,278,306.17l-.65-1.64a1.37,1.37,0,0,1,.52-1.66A86.27,86.27,0,0,1,296,294.46a1.2,1.2,0,0,1,1.47.75Z" transform="translate(-68.78 -204)"/><path class="cls-28" d="M327.37,287c1.06,2.7.69,5.46-.81,6.16L74,410.22l-3.82-9.78,252.55-117C324.25,282.72,326.32,284.34,327.37,287Z" transform="translate(-68.78 -204)"/><ellipse class="cls-29" cx="72.1" cy="405.33" rx="2.99" ry="5.25" transform="translate(-200.68 -156.26) rotate(-19.62)"/><path class="cls-30" d="M254,315.29a2.21,2.21,0,0,0-1.8,0,2.53,2.53,0,0,0-1.25,1.42l.51-.24c1.5-.69,3.58.93,4.64,3.62s.68,5.46-.82,6.16l-.51.24a2.28,2.28,0,0,0,1.81,0,2.6,2.6,0,0,0,1.24-1.41,8.07,8.07,0,0,0-.32-5.64A7.19,7.19,0,0,0,254,315.29Z" transform="translate(-68.78 -204)"/><path class="cls-31" d="M145.5,364.73c.14.36-.39,1-1.33,1.67a16.48,16.48,0,0,1-2.81,1.62,15.18,15.18,0,0,1-3,1.09c-1.09.25-1.87.23-2-.13-.26-.66,1.58-2.13,4.12-3.3S145.24,364.07,145.5,364.73Z" transform="translate(-68.78 -204)"/><path class="cls-32" d="M145.5,364.73l.7,1.81c.25.64-1.59,2.13-4.13,3.31s-4.78,1.58-5,.94l-.71-1.81c.14.36.92.38,2,.13a15.18,15.18,0,0,0,3-1.09,16.48,16.48,0,0,0,2.81-1.62C145.11,365.72,145.64,365.09,145.5,364.73Z" transform="translate(-68.78 -204)"/><path class="cls-33" d="M160,358c.14.36-.39,1-1.33,1.67a16.48,16.48,0,0,1-2.81,1.62,15.18,15.18,0,0,1-3,1.09c-1.09.25-1.87.23-2-.13-.26-.66,1.58-2.13,4.12-3.3S159.7,357.37,160,358Z" transform="translate(-68.78 -204)"/><path class="cls-32" d="M160,358l.7,1.81c.25.64-1.59,2.13-4.13,3.31s-4.78,1.58-5,.94l-.71-1.81c.14.36.92.38,2,.13a15.18,15.18,0,0,0,3-1.09,16.48,16.48,0,0,0,2.81-1.62C159.57,359,160.1,358.39,160,358Z" transform="translate(-68.78 -204)"/><path class="cls-34" d="M174.42,351.33c.14.36-.39,1-1.33,1.67a16.48,16.48,0,0,1-2.81,1.62,15,15,0,0,1-3,1.09c-1.09.25-1.87.23-2-.13-.26-.66,1.58-2.13,4.12-3.3S174.16,350.67,174.42,351.33Z" transform="translate(-68.78 -204)"/><path class="cls-32" d="M174.42,351.33l.7,1.81c.25.64-1.59,2.13-4.13,3.31s-4.78,1.58-5,.94l-.71-1.81c.14.36.92.38,2,.13a15,15,0,0,0,3-1.09,16.48,16.48,0,0,0,2.81-1.62C174,352.32,174.56,351.69,174.42,351.33Z" transform="translate(-68.78 -204)"/><path class="cls-35" d="M188.88,344.63c.14.36-.39,1-1.33,1.67a16.48,16.48,0,0,1-2.81,1.62,15.6,15.6,0,0,1-3,1.09c-1.09.25-1.87.23-2-.13-.26-.66,1.58-2.13,4.12-3.3S188.62,344,188.88,344.63Z" transform="translate(-68.78 -204)"/><path class="cls-32" d="M188.88,344.63l.7,1.81c.26.64-1.59,2.13-4.12,3.31s-4.79,1.58-5,.94l-.71-1.81c.14.36.92.38,2,.13a15.6,15.6,0,0,0,3-1.09,16.48,16.48,0,0,0,2.81-1.62C188.49,345.62,189,345,188.88,344.63Z" transform="translate(-68.78 -204)"/><path class="cls-36" d="M203.34,337.93c.14.36-.39,1-1.32,1.67a17,17,0,0,1-2.82,1.62,15.5,15.5,0,0,1-3,1.08c-1.09.26-1.87.24-2-.12-.26-.66,1.58-2.13,4.12-3.3S203.08,337.27,203.34,337.93Z" transform="translate(-68.78 -204)"/><path class="cls-32" d="M203.34,337.93l.7,1.81c.26.64-1.59,2.13-4.12,3.3s-4.79,1.59-5,.95l-.71-1.81c.14.36.92.38,2,.12a15.5,15.5,0,0,0,3-1.08A17,17,0,0,0,202,339.6C203,338.91,203.48,338.29,203.34,337.93Z" transform="translate(-68.78 -204)"/><path class="cls-37" d="M217.8,331.23c.14.36-.39,1-1.32,1.67a17,17,0,0,1-2.82,1.62,15.5,15.5,0,0,1-3,1.08c-1.09.26-1.87.24-2-.12-.25-.66,1.58-2.13,4.12-3.3S217.54,330.57,217.8,331.23Z" transform="translate(-68.78 -204)"/><path class="cls-32" d="M217.8,331.23l.71,1.81c.25.64-1.6,2.13-4.13,3.3s-4.79,1.59-5,1l-.71-1.81c.14.36.92.38,2,.12a15.5,15.5,0,0,0,3-1.08,17,17,0,0,0,2.82-1.62C217.41,332.21,217.94,331.59,217.8,331.23Z" transform="translate(-68.78 -204)"/><path class="cls-38" d="M232.26,324.53c.14.36-.39,1-1.32,1.67a17.3,17.3,0,0,1-2.81,1.62,15.8,15.8,0,0,1-3,1.08c-1.09.26-1.87.24-2-.12-.25-.66,1.58-2.13,4.12-3.31S232,323.87,232.26,324.53Z" transform="translate(-68.78 -204)"/><path class="cls-32" d="M232.26,324.53l.71,1.81c.25.64-1.6,2.13-4.13,3.3s-4.79,1.59-5,.95l-.71-1.81c.14.36.92.38,2,.12a15.8,15.8,0,0,0,3-1.08,17.3,17.3,0,0,0,2.81-1.62C231.87,325.51,232.4,324.89,232.26,324.53Z" transform="translate(-68.78 -204)"/><path class="cls-39" d="M94.43,393a2.29,2.29,0,0,1-1,1,2.2,2.2,0,0,1-1.41.17c-.62-1.57-1.23-3.13-1.84-4.7l2.43-1.12Z" transform="translate(-68.78 -204)"/><path class="cls-40" d="M111.54,385a2,2,0,0,1-1,1,2.06,2.06,0,0,1-1.45.12l-1.83-4.7,2.42-1.12Z" transform="translate(-68.78 -204)"/><path class="cls-41" d="M95.4,383.93c.15.4-.42,1.08-1.44,1.83a19.12,19.12,0,0,1-3.07,1.76,16.6,16.6,0,0,1-3.29,1.18c-1.2.28-2,.26-2.2-.14-.28-.71,1.73-2.31,4.49-3.59S95.12,383.22,95.4,383.93Z" transform="translate(-68.78 -204)"/><path class="cls-32" d="M95.4,383.93l.77,2c.27.7-1.74,2.32-4.5,3.6s-5.22,1.73-5.5,1l-.77-2c.16.4,1,.42,2.2.14a16.6,16.6,0,0,0,3.29-1.18A19.12,19.12,0,0,0,94,385.76C95,385,95.55,384.33,95.4,383.93Z" transform="translate(-68.78 -204)"/><path class="cls-42" d="M112.5,376c.15.4-.42,1.08-1.45,1.83A19,19,0,0,1,108,379.6a17.09,17.09,0,0,1-3.3,1.18c-1.19.28-2,.26-2.19-.14-.28-.71,1.73-2.32,4.49-3.6S112.22,375.29,112.5,376Z" transform="translate(-68.78 -204)"/><path class="cls-32" d="M112.5,376l.77,2c.27.71-1.74,2.33-4.51,3.61s-5.22,1.73-5.49,1l-.77-2c.15.4,1,.42,2.19.14a17.09,17.09,0,0,0,3.3-1.18,19,19,0,0,0,3.06-1.76C112.08,377.09,112.65,376.41,112.5,376Z" transform="translate(-68.78 -204)"/><path class="cls-17" d="M280.52,360.1c-.06,2.39-1.91,6-4.94,9.64l-.07.09c-.67.79-1.39,1.59-2.17,2.37-.46.46-.93.9-1.39,1.32a27.63,27.63,0,0,0-4.63-3.86,21,21,0,0,0-3.78-2,29.33,29.33,0,0,1-4.84-2.46,39.22,39.22,0,0,1-8.06-6.85c-2.72-3-4.37-4.86-5.4-7.21a13.5,13.5,0,0,1-.62-1.73c-.85-3-.35-4.73-1.91-7.9a16,16,0,0,0-2.18-3.29,9.74,9.74,0,0,0-.83-.88A11.76,11.76,0,0,0,238,336c-5.55-3.6-12.92-1.72-14.94-5.14a2.93,2.93,0,0,1-.49-2.2c.34-1.15,1.74-1.55,2.06-1.64a2.83,2.83,0,0,1,.4-2.38,1.41,1.41,0,0,1,.52-.35c.62-.24,1.62-.12,3.55-.08,1.24,0,2.24,0,2.91,0a58.39,58.39,0,0,1,8.34-5.21c4.22-2.16,5.71-2.26,7-1.94,1.76.45,2.67,1.65,4.51,3.73,5.61,6.36,5.8,5,9,9.23a20.62,20.62,0,0,1,1.17,1.71c1.13,1.79,2.58,4.43,4.85,8.57l.32.59c3.38,6.19,4,7.79,6.09,10.57a36.43,36.43,0,0,0,5.92,6.15l.61.49.22.18A2.86,2.86,0,0,1,280.52,360.1Z" transform="translate(-68.78 -204)"/><path class="cls-43" d="M250.32,341.31a21.32,21.32,0,0,0-3.28-6.48,11.9,11.9,0,0,0-3.62-3.49c-1.23-.72-2.07-.83-4.24-1.27-6.06-1.24-6.68-1.85-12.19-2.69-1-.16-1.81-.26-2.33-.33a2.83,2.83,0,0,1,.4-2.38,1.41,1.41,0,0,1,.52-.35,11.68,11.68,0,0,0,1.3,1c2.62,1.71,4.72,1.55,8.83,2.12,4.78.66,7.16,1,9.22,2.36a12.21,12.21,0,0,1,5.33,7.62A11.62,11.62,0,0,1,250.32,341.31Z" transform="translate(-68.78 -204)"/><path class="cls-44" d="M232,324.22a50.28,50.28,0,0,0,7.5-.29c2.29-.26,3.7-.58,5.55.06a9.43,9.43,0,0,1,3.67,2.55c2,2,4.72,4.6,8.66,8-1-1.45-2.35-3.45-4.05-5.81-3.72-5.14-4.38-5.61-5-5.92-2.06-1.14-4.61-.78-9.62,0C235.94,323.29,233.6,323.83,232,324.22Z" transform="translate(-68.78 -204)"/><path class="cls-45" d="M275.58,369.74l-.07.09c-.67.79-1.39,1.59-2.17,2.37-.46.46-.93.9-1.39,1.32a27.63,27.63,0,0,0-4.63-3.86,21,21,0,0,0-3.78-2,29.33,29.33,0,0,1-4.84-2.46,39.22,39.22,0,0,1-8.06-6.85c-2.72-3-4.37-4.86-5.4-7.21a13.5,13.5,0,0,1-.62-1.73c-.85-3-.35-4.73-1.91-7.9a16,16,0,0,0-2.18-3.29,22.35,22.35,0,0,1,4.88,4.64c3.63,4.7,2.75,7.44,5.2,11.27,2.86,4.46,6.06,3.84,15.6,9.36a85,85,0,0,1,8.91,5.9C275.28,369.51,275.44,369.62,275.58,369.74Z" transform="translate(-68.78 -204)"/><path class="cls-46" d="M377.77,624.44a49.67,49.67,0,0,1-7.38,4.58c-.41.21-.84.42-1.28.62s-.89.42-1.36.61l-.23.1q-.58.25-1.2.48c-.38.15-.77.3-1.17.44l-.31.11q-1.08.39-2.22.72l-.88.25a43.07,43.07,0,0,1-4.69,1,44.33,44.33,0,0,1-7.11.54,43.83,43.83,0,0,1-6.52-.51A331.44,331.44,0,0,1,324,585.44s0,0,0,0A319.85,319.85,0,0,1,315.7,554q-1.06-5.12-2-10.4c-1.3-7.37-2.29-14.54-3-21.48l-.55,0a477,477,0,0,1-62.29-6.85c-14.31-2.54-29-5.87-38.93-19l-.09-.11a45,45,0,0,1-2.55-3.77c-.7-1.18-1.26-2.24-1.69-3.1l1.07-.09.85-.08.29,0,1.16-.12c1.25-.14,2.61-.32,4.06-.53,2.38-.35,5-.82,7.84-1.45l1.43-.32c2.41-.56,5-1.24,7.61-2.06h0c15.51-4.76,21.74-10.28,33.28-14.11,15.46,1.27,29.08,2.58,40.26,3.77,14.1,1.5,24.34,2.83,29.58,3.71,3.65.61,10.62,2,15.9,7.87a24.6,24.6,0,0,1,4.17,6.63,134.63,134.63,0,0,1,5,13.59c10,32,15.62,79,15.62,79,0,.26.06.53.1.81.06.54.13,1.11.2,1.69s.15,1.18.22,1.8c.15,1.24.31,2.54.48,3.92.05.34.09.69.13,1,.43,3.52.93,7.46,1.5,11.76.34,2.59.7,5.3,1.08,8.15.07.47.13,1,.2,1.43q.29,2.16.6,4.41c.14,1,.28,2,.42,3C377.65,623.59,377.72,624,377.77,624.44Z" transform="translate(-68.78 -204)"/><path class="cls-17" d="M371.53,636.59l-1.38.23L369,637h-.06l-1.08.22-.93.2-1.64.38-.72.18-.38.1c-.25.06-.48.12-.69.19-.62.16-1.12.31-1.48.42a76.47,76.47,0,0,0-9.69,3.66l-2.37-8.5a44.33,44.33,0,0,0,7.11-.54,43.07,43.07,0,0,0,4.69-1c.3-.08.6-.16.88-.25q1.14-.33,2.22-.72l.31-.11c.4-.14.79-.29,1.17-.44s.81-.31,1.2-.48l.23-.1c.47-.19.92-.4,1.36-.61s.87-.41,1.28-.62l.42,2.83Z" transform="translate(-68.78 -204)"/><path class="cls-7" d="M418,642.83a6.21,6.21,0,0,1-1.42,3.57,6.81,6.81,0,0,1-4,2.31c-2.53.55-10.69,3.48-20.09,6.89-12.6,4.57-27.41,10-33.77,11.73-.82.22-1.49.38-2,.47a4.06,4.06,0,0,1-2.92-.44,3.84,3.84,0,0,1-1.33-1.44c-.08-.14-.17-.29-.24-.43-4.39-8-2.42-17.07-2.42-17.07a16,16,0,0,1,.69-2.53,14.82,14.82,0,0,1,1.83-3.49,76.47,76.47,0,0,1,9.69-3.66c.36-.11.86-.26,1.48-.42.21-.07.44-.13.69-.19l.38-.1.72-.18c.5-.13,1.05-.25,1.64-.38l.93-.2,1.08-.22H369l1.17-.22,1.38-.23c2.43-.4,5.28-.77,8.53-1,1.1-.09,2.16-.16,3.2-.2a69.85,69.85,0,0,1,7.25.06l1.05.07.66,0,.39,0,2.17.21.83.09,2.17.28c2.89.39,6,.9,9.68,1.52l1.72.29,1.13.19c2.43.41,6.89,1.22,7.56,3.9A2.85,2.85,0,0,1,418,642.83Z" transform="translate(-68.78 -204)"/><path class="cls-46" d="M391,616a49.14,49.14,0,0,1-7.38,4.58,47.67,47.67,0,0,1-6,2.55c-2.29-16.41-3.92-29.61-4.93-38,0,0-7.5-62.8-20.6-92.63a24.6,24.6,0,0,0-4.17-6.63c-5.28-5.9-12.25-7.26-15.9-7.87-9.39-1.58-34.89-4.6-69.84-7.48.89-.29,1.8-.58,2.76-.85a73.71,73.71,0,0,1,26.83-2.42c2.21.18,4.52.46,6.93.86,30.35,3.31,52.58,6.11,57.51,7.1a11.24,11.24,0,0,1,5,2.27c2.57,2.11,3.5,5.12,4.16,6.63,13.1,29.83,20.6,92.63,20.6,92.63C387,585.39,388.66,599.05,391,616Z" transform="translate(-68.78 -204)"/><path class="cls-17" d="M384.79,628.19a71.45,71.45,0,0,0-9.53,2.15c-.57.17-1.13.35-1.67.53l-1.19.4-1.59.57-.42-2.83a49.67,49.67,0,0,0,7.38-4.58c0-.42-.12-.85-.17-1.26a47.67,47.67,0,0,0,6-2.55Z" transform="translate(-68.78 -204)"/><path class="cls-7" d="M429.8,638a6.78,6.78,0,0,1-4,2.31c-1.31.29-4.14,1.21-7.87,2.51a2.85,2.85,0,0,0-.09-.77c-.67-2.68-5.13-3.49-7.56-3.9-13.47-2.28-20.2-3.42-30.25-2.6-3.25.26-6.1.63-8.53,1l-.72-4.74,1.59-.57,1.19-.4c.54-.18,1.1-.36,1.67-.53a71.45,71.45,0,0,1,9.53-2.15c2.43-.4,5.28-.77,8.53-1,10.05-.82,16.79.32,30.25,2.6,2.43.41,6.9,1.22,7.57,3.9A5.58,5.58,0,0,1,429.8,638Z" transform="translate(-68.78 -204)"/><path class="cls-47" d="M391,616a49.14,49.14,0,0,1-7.38,4.58,47.67,47.67,0,0,1-6,2.55c-2.29-16.41-3.92-29.61-4.93-38,0,0-7.5-62.8-20.6-92.63a24.6,24.6,0,0,0-4.17-6.63c-5.28-5.9-12.25-7.26-15.9-7.87-9.39-1.58-34.89-4.6-69.84-7.48.89-.29,1.8-.58,2.76-.85a73.71,73.71,0,0,1,26.83-2.42c2.21.18,4.52.46,6.93.86,30.35,3.31,52.58,6.11,57.51,7.1a11.24,11.24,0,0,1,5,2.27c2.57,2.11,3.5,5.12,4.16,6.63,13.1,29.83,20.6,92.63,20.6,92.63C387,585.39,388.66,599.05,391,616Z" transform="translate(-68.78 -204)"/><path class="cls-48" d="M384.79,628.19a71.45,71.45,0,0,0-9.53,2.15c-.57.17-1.13.35-1.67.53l-1.19.4-1.59.57-.42-2.83a49.67,49.67,0,0,0,7.38-4.58c0-.42-.12-.85-.17-1.26a47.67,47.67,0,0,0,6-2.55Z" transform="translate(-68.78 -204)"/><path class="cls-49" d="M429.8,638a6.78,6.78,0,0,1-4,2.31c-1.31.29-4.14,1.21-7.87,2.51a2.85,2.85,0,0,0-.09-.77c-.67-2.68-5.13-3.49-7.56-3.9-13.47-2.28-20.2-3.42-30.25-2.6-3.25.26-6.1.63-8.53,1l-.72-4.74,1.59-.57,1.19-.4c.54-.18,1.1-.36,1.67-.53a71.45,71.45,0,0,1,9.53-2.15c2.43-.4,5.28-.77,8.53-1,10.05-.82,16.79.32,30.25,2.6,2.43.41,6.9,1.22,7.57,3.9A5.58,5.58,0,0,1,429.8,638Z" transform="translate(-68.78 -204)"/><path class="cls-17" d="M140.4,360.44c-.48,2,.44,4.5,2,5.14,2.13.84,4.95-1.86,5.43-4.66,0-.24.43-2.63-.8-3.68C145.39,355.8,141.15,357.29,140.4,360.44Z" transform="translate(-68.78 -204)"/><path class="cls-17" d="M151.52,355.44c-.47,2,.44,4.51,2,5.14,2.13.85,4.94-1.85,5.43-4.65,0-.24.43-2.64-.8-3.69C156.51,350.81,152.27,352.3,151.52,355.44Z" transform="translate(-68.78 -204)"/><path class="cls-17" d="M163.91,349.79c-.47,2,.45,4.5,2.05,5.14,2.13.84,4.94-1.86,5.43-4.66,0-.24.43-2.63-.8-3.68C168.91,345.15,164.67,346.64,163.91,349.79Z" transform="translate(-68.78 -204)"/><path class="cls-17" d="M133.13,358.43a3.38,3.38,0,0,0,2.61,3.49c1.65.22,3-1.57,3.26-3.32a3.72,3.72,0,0,0-.6-2.61c-.8-.89-2-.48-2.59-.27S133.31,356.58,133.13,358.43Z" transform="translate(-68.78 -204)"/></svg>