<svg id="Слой_1" data-name="Слой 1" xmlns="http://www.w3.org/2000/svg" xmlns:xlink="http://www.w3.org/1999/xlink" viewBox="0 0 654.79 540.2"><defs><style>.cls-1{fill:#4c2051;}.cls-2{fill:#ff9b63;}.cls-3{opacity:0.5;fill:url(#Безымянный_градиент_60);}.cls-4{fill:url(#Безымянный_градиент_11);}.cls-5{fill:url(#Безымянный_градиент_9);}.cls-6{fill:url(#Безымянный_градиент_11-2);}.cls-7{fill:#b3b3b3;}.cls-8{fill:#63206a;}.cls-9{fill:url(#Безымянный_градиент_10);}.cls-10{fill:url(#Безымянный_градиент_10-2);}.cls-11{fill:url(#Безымянный_градиент_10-3);}.cls-12{fill:url(#Безымянный_градиент_11-3);}.cls-13{fill:#ffb342;}.cls-14{fill:url(#Безымянный_градиент_8);}.cls-15{fill:url(#Безымянный_градиент_11-4);}.cls-16{fill:url(#Безымянный_градиент_11-5);}.cls-17{fill:url(#Безымянный_градиент_11-6);}.cls-18{fill:url(#Безымянный_градиент_11-7);}.cls-19{fill:url(#Безымянный_градиент_5);}.cls-20{fill:#29abe2;}.cls-21{fill:#f2f2f2;}.cls-22{fill:#e6e6e6;}.cls-23{fill:#ccc;}.cls-24,.cls-29{fill:#fff;}.cls-25{fill:url(#Безымянный_градиент_11-8);}.cls-26{fill:url(#Безымянный_градиент_11-9);}.cls-27{fill:url(#Безымянный_градиент_11-10);}.cls-28{fill:url(#Безымянный_градиент_11-11);}.cls-29{opacity:0.3;}</style><linearGradient id="Безымянный_градиент_60" x1="-538.16" y1="319.12" x2="-604.54" y2="247.9" gradientTransform="matrix(-0.8, 0.6, 0.6, 0.8, -48.2, 347.4)" gradientUnits="userSpaceOnUse"><stop offset="0" stop-color="#63206a"/><stop offset="1" stop-color="#ffc4ff"/></linearGradient><linearGradient id="Безымянный_градиент_11" x1="622.97" y1="328.84" x2="599.88" y2="329.92" gradientUnits="userSpaceOnUse"><stop offset="0" stop-color="#3c3b36" stop-opacity="0"/><stop offset="1" stop-opacity="0.3"/></linearGradient><linearGradient id="Безымянный_градиент_9" x1="537.28" y1="415.1" x2="555.09" y2="396.01" gradientUnits="userSpaceOnUse"><stop offset="0" stop-opacity="0.3"/><stop offset="1" stop-color="#3c3b36" stop-opacity="0"/></linearGradient><linearGradient id="Безымянный_градиент_11-2" x1="571.62" y1="415.28" x2="575.63" y2="431.96" xlink:href="#Безымянный_градиент_11"/><linearGradient id="Безымянный_градиент_10" x1="530.05" y1="414.79" x2="551.85" y2="414.79" xlink:href="#Безымянный_градиент_9"/><linearGradient id="Безымянный_градиент_10-2" x1="537.73" y1="419.23" x2="556.68" y2="419.23" xlink:href="#Безымянный_градиент_9"/><linearGradient id="Безымянный_градиент_10-3" x1="546.6" y1="423.36" x2="562.15" y2="423.36" xlink:href="#Безымянный_градиент_9"/><linearGradient id="Безымянный_градиент_11-3" x1="521.12" y1="436.37" x2="511.09" y2="454.64" xlink:href="#Безымянный_градиент_11"/><linearGradient id="Безымянный_градиент_8" x1="623.28" y1="413.67" x2="658.21" y2="428.03" gradientUnits="userSpaceOnUse"><stop offset="0" stop-color="#b05500" stop-opacity="0"/><stop offset="1" stop-color="#b05500" stop-opacity="0.3"/></linearGradient><linearGradient id="Безымянный_градиент_11-4" x1="777.84" y1="643.09" x2="777.75" y2="643.04" xlink:href="#Безымянный_градиент_11"/><linearGradient id="Безымянный_градиент_11-5" x1="777.49" y1="643.68" x2="777.47" y2="643.67" xlink:href="#Безымянный_градиент_11"/><linearGradient id="Безымянный_градиент_11-6" x1="778.59" y1="641.71" x2="778.38" y2="641.58" xlink:href="#Безымянный_градиент_11"/><linearGradient id="Безымянный_градиент_11-7" x1="778.87" y1="608.56" x2="683.3" y2="552.74" xlink:href="#Безымянный_градиент_11"/><linearGradient id="Безымянный_градиент_5" x1="697.11" y1="477.14" x2="714.75" y2="442.51" gradientUnits="userSpaceOnUse"><stop offset="0" stop-color="#b05500" stop-opacity="0.3"/><stop offset="1" stop-color="#b05500" stop-opacity="0"/></linearGradient><linearGradient id="Безымянный_градиент_11-8" x1="385.94" y1="400.09" x2="410.7" y2="424.65" xlink:href="#Безымянный_градиент_11"/><linearGradient id="Безымянный_градиент_11-9" x1="446.19" y1="394.43" x2="470.96" y2="418.99" xlink:href="#Безымянный_градиент_11"/><linearGradient id="Безымянный_градиент_11-10" x1="358.37" y1="570.76" x2="369.82" y2="622.74" gradientTransform="translate(77.6 -57.57) rotate(6.61)" xlink:href="#Безымянный_градиент_11"/><linearGradient id="Безымянный_градиент_11-11" x1="429.35" y1="546.11" x2="398.93" y2="487.74" xlink:href="#Безымянный_градиент_11"/></defs><path class="cls-1" d="M535.34,334.91c5,3.72,4.53,7.19,8,10.16,3.89,3.32,11.56,5.58,28.38-.95.53-.46,1.55-1.31,2.88-2.28,16-11.59,31.46-5.77,48.08-16.27,4.31-2.73,6.39-5.08,7.27-8.07,1.63-5.45-2.18-8.07-1.69-14.93.57-7.85,5.82-8,6.36-15.95.09-1.3.12-9-4.27-14.54-3.77-4.79-7.65-4.56-9.85-9.38-2-4.3.5-5.61-1.66-10.39a15.21,15.21,0,0,0-9.43-8.12c-4.69-1.23-5.53,1.83-9.37.74-4.78-1.36-6-10.46-13.81-14a14.48,14.48,0,0,0-7.13-1c-8.53.39-9.5,6.21-15.66,5.93-5.79-.27-6.92-5.52-13.74-5.78a13.87,13.87,0,0,0-9.05,2.9c-5.17,4.34-2.06,9.85-6.5,13.88s-9.21.1-15.31,4.81a14.94,14.94,0,0,0-5.34,7.54c-1.94,6.62,2.69,9.89.71,15.32-1.77,4.87-6,3.81-8,9.25-1.84,5.22.51,10.64.75,11.19,2.35,5.23,5.61,4.7,7.44,9.27,2,5-1.38,7,.14,13.62a20.82,20.82,0,0,0,5.79,10.23C525.48,332.79,529.39,330.46,535.34,334.91Z" transform="translate(-172.61 -229.9)"/><path class="cls-2" d="M647.16,323.29q-11,17.88-21.95,35.78L616.62,355l-7.94-3.76c-1.41,2.26-7.06,10.69-16.59,11.94-5.78.75-10.56-1.13-16.16-4.27-5.19-2.89-10.42-7.08-16.54-11.92A166.23,166.23,0,0,1,540,328.09c-.53-.61-.86-1-1.1-1.3a50.42,50.42,0,0,1-7.24-12.42c-1.77-5-2.64-7.43-1.72-9.92,1.71-4.59,6.55-2.81,10.12-8,3.36-4.87,1.77-9.91,6.4-13.48,3.47-2.66,5.72-.17,12.82-2.63,2.6-.91,2-1.51,4.41-2.12a13.42,13.42,0,0,1,9.35,1.24c4,2.34,3.5,5.6,7.92,11.12a32.11,32.11,0,0,0,6.2,5.9,14,14,0,0,1,4.58-9.45c1-.84,3.78-3.27,7.39-3.1,7.16.34,11.78,10.67,13.14,16.84.23,1.06.36,2,.44,2.66Z" transform="translate(-172.61 -229.9)"/><path class="cls-3" d="M514.54,270a15.81,15.81,0,0,1,3.25-3.31c6.11-4.71,10.89-.8,15.32-4.81s1.32-9.53,6.49-13.87c.15-.13.3-.24.44-.35a14.13,14.13,0,0,1,8.61-2.57c6.81.27,8,5.52,13.74,5.79,6.15.28,7.13-5.54,15.66-5.93a14.46,14.46,0,0,1,7.13,1c7.81,3.5,9,12.61,13.81,14,3.85,1.1,4.69-2,9.38-.73a15.22,15.22,0,0,1,9.42,8.12c2.15,4.77-.32,6.08,1.66,10.39,2.2,4.82,6.08,4.59,9.85,9.37a18.84,18.84,0,0,1,3.14,6.18,12.76,12.76,0,0,0,2.18-6.6c.09-1.3.12-9-4.26-14.54-3.77-4.79-7.66-4.56-9.86-9.37-2-4.3.5-5.62-1.66-10.39a15.2,15.2,0,0,0-9.42-8.13c-4.69-1.23-5.53,1.83-9.38.74-4.77-1.36-6-10.45-13.81-14a14.48,14.48,0,0,0-7.14-1c-8.53.4-9.49,6.21-15.65,5.93-5.79-.27-6.92-5.51-13.74-5.78a13.85,13.85,0,0,0-9.05,2.91c-4.36,3.66-2.84,8.14-4.91,11.88a8,8,0,0,1-1.59,2c-4.43,4-9.21.1-15.31,4.81a15,15,0,0,0-5.34,7.54C512.16,263.8,514,266.77,514.54,270Z" transform="translate(-172.61 -229.9)"/><path class="cls-4" d="M616.62,355l-7.94-3.76a60.21,60.21,0,0,0,2.4-7.36,57.74,57.74,0,0,0,1.68-9.6c.53-8.13-3-15.62-5.2-19.47a11.44,11.44,0,0,0,3.25-3.1,12.07,12.07,0,0,0,1.92-8.27,50.65,50.65,0,0,1,8.42,20.23A51.85,51.85,0,0,1,616.62,355Z" transform="translate(-172.61 -229.9)"/><path class="cls-2" d="M596.76,424.88A53.74,53.74,0,0,0,579,426.39c-6,1.59-8.3,3.42-14,3.72-1.69.09-8,.41-13-2.37a14.85,14.85,0,0,1-3.39-2.55c-3.92-3.81-6.29-9.79-6.81-16.63a40.6,40.6,0,0,1,.07-7c-6.37,1-11.37.38-13.23-1a7.05,7.05,0,0,1-2.08-2.49l-.05-.08a2.76,2.76,0,0,1-.33-2c.66-1.44,4-1.23,5.06-1.19,6.78.27,7.93-2.83,20.08-4.56,5.85-.82,9.66-1.36,14.67-.33,4.54.93,6.75,2.48,11.47,4.73a95.28,95.28,0,0,0,19.07,6.57c0,4.27.06,8.56.1,12.84C596.7,417.7,596.73,421.28,596.76,424.88Z" transform="translate(-172.61 -229.9)"/><path class="cls-5" d="M572.62,404.63a12,12,0,0,1-3.07,4.2c-5.18,4.49-14.28,4.1-23.13-.57a21.8,21.8,0,0,1-4.57.3,40.6,40.6,0,0,1,.07-7c-6.37,1-11.37.38-13.23-1a7.05,7.05,0,0,1-2.08-2.49,34.8,34.8,0,0,0,27.57-3.78c-1,.66-4,3-3.84,6.36a6.77,6.77,0,0,0,2.41,4.38C558.57,410.44,571.54,405.08,572.62,404.63Z" transform="translate(-172.61 -229.9)"/><path class="cls-6" d="M596.76,424.88A53.74,53.74,0,0,0,579,426.39c-6,1.59-8.3,3.42-14,3.72-1.69.09-8,.41-13-2.37a14.85,14.85,0,0,1-3.39-2.55,12.08,12.08,0,0,1,5.5-3.78c3.71-1.06,5.39,1.35,10.44,1.22,6.63-.17,9.78-4.45,14.74-7,3.66-1.87,9.11-3.21,17.34-1.54C596.7,417.7,596.73,421.28,596.76,424.88Z" transform="translate(-172.61 -229.9)"/><rect class="cls-7" x="281.61" y="176.63" width="63.63" height="2.39"/><rect class="cls-8" x="333.55" y="171.69" width="41.97" height="12.28" rx="3.04"/><path class="cls-2" d="M561.88,421.55c-.44,1.58-1.45,2.47-3.48,4.21-3,2.55-5.28,4.53-7.85,4a5.51,5.51,0,0,1-2.71-1.48A5,5,0,0,1,546.6,426a6.64,6.64,0,0,1-8.87-3.13,6.24,6.24,0,0,1-5.59-.57,5.43,5.43,0,0,1-2.09-4,8.14,8.14,0,0,1,0-2.05c.39-3.08,2.66-5,4.38-6.4,5.38-4.37,14.09-6.9,16.63-3.83.06.08.13.18.21.27a4.31,4.31,0,0,1,.52,2.83,4.32,4.32,0,0,1,3.12.55,4.06,4.06,0,0,1,1.51,2.13,5.84,5.84,0,0,1-.24,3.9,4.72,4.72,0,0,1,4.76.91,3.08,3.08,0,0,1,.24.26C562.69,418.61,562,421.06,561.88,421.55Z" transform="translate(-172.61 -229.9)"/><path class="cls-9" d="M551.82,409.12c-1.33,2.79-3.66,4.32-5.56,5.54-3.43,2.21-5,1.93-6.69,4a9.07,9.07,0,0,0-1.84,4.21,6.24,6.24,0,0,1-5.59-.57,5.43,5.43,0,0,1-2.09-4,5.55,5.55,0,0,0,4.14.86c1.75-.44,2-1.77,4.17-3.9,3.43-3.31,5.72-2.42,9.75-5.86a33.92,33.92,0,0,0,3.19-3.11A4.31,4.31,0,0,1,551.82,409.12Z" transform="translate(-172.61 -229.9)"/><path class="cls-10" d="M556.21,415.7q-4.82,5.15-9.61,10.3a6.64,6.64,0,0,1-8.87-3.13c1.51.82,4.36,2,7,1,.6-.24,1.08-.55,3.89-3.46,2.13-2.19,3.31-3.39,5.33-5.7.68-.78,1.54-1.76,2.5-2.91A5.84,5.84,0,0,1,556.21,415.7Z" transform="translate(-172.61 -229.9)"/><path class="cls-11" d="M561.88,421.55c-.44,1.58-1.45,2.47-3.48,4.21-3,2.55-5.28,4.53-7.85,4a5.51,5.51,0,0,1-2.71-1.48A5,5,0,0,1,546.6,426a8.47,8.47,0,0,0,4.68.94c3.89-.43,6.26-3.88,7.82-6.14a18.79,18.79,0,0,0,2.11-3.93C562.69,418.61,562,421.06,561.88,421.55Z" transform="translate(-172.61 -229.9)"/><path class="cls-2" d="M560.28,438.5q-4.44,9.88-8.86,19.76-2,4.49-4,9-13.29-10.08-26.56-20.2c-6.15,3.74-10,3.67-12.47,2.77s-3.07-2.38-6.75-3.36c-3.34-.9-5.19-.3-6.34-1.78s.25-2.84-.79-4.95c-1.37-2.85-4.61-2.06-5.74-4.56s1.51-4.11.4-7.14c-.75-2-2.21-2-2.78-4-.12-.44-.63-2.45,1.59-6a10.74,10.74,0,0,1,1.18-1.6c4-4.51,8.94-4.44,12.27-8.89,1.63-2.18,2.12-4.46,5.06-6.29a7.44,7.44,0,0,1,1.69-.85c4.2-1.38,8.3.66,9.31,1.2,3.07,1.62,4.65,3.92,6.19,6.18,1.78,2.59,2.88,4.2,2.92,6.5a14.75,14.75,0,0,0,.21,3.56c.72,3.3,4.16,5.23,6.09,6.27C539.71,427.87,549,432.82,560.28,438.5Z" transform="translate(-172.61 -229.9)"/><path class="cls-12" d="M551.42,458.26q-2,4.49-4,9-13.29-10.08-26.56-20.2c-6.15,3.74-10,3.67-12.47,2.77s-3.07-2.38-6.75-3.36c-3.34-.9-5.19-.3-6.34-1.78s.25-2.84-.79-4.95c-1.37-2.85-4.61-2.06-5.74-4.56s1.51-4.11.4-7.14c-.75-2-2.21-2-2.78-4-.12-.44-.63-2.45,1.59-6a10.54,10.54,0,0,1,1.18-1.6h0A10.85,10.85,0,0,0,493,421.8c2.91,2,5.46,1.17,8.49,2,5.2,1.42,4.13,6.23,10.21,10.48,3,2.1,3.63,1.36,8.24,3.72,5.67,2.9,8.81,6.11,11.54,8.49A68.09,68.09,0,0,0,551.42,458.26Z" transform="translate(-172.61 -229.9)"/><path class="cls-13" d="M591.21,395.47a64.19,64.19,0,0,0-5.06,27.93,599,599,0,0,0,65.32,25.51q17.47,5.67,33.87,9.9l2.86-44Z" transform="translate(-172.61 -229.9)"/><path class="cls-14" d="M591.21,395.47a64.19,64.19,0,0,0-5.06,27.93,599,599,0,0,0,65.32,25.51q17.47,5.67,33.87,9.9l2.86-44Z" transform="translate(-172.61 -229.9)"/><path class="cls-2" d="M801.9,628.77a95.86,95.86,0,0,1-.5-26.22l-27.9.72a41.3,41.3,0,0,1,3.7,12.87,41.72,41.72,0,0,1-1.23,16c6.73-.58,13.7-1.4,20.89-2.53C798.55,629.34,800.23,629.06,801.9,628.77Z" transform="translate(-172.61 -229.9)"/><path class="cls-1" d="M798.62,668.17c2.24,3.12,11.57,2.05,17.53-2.67,5.62-4.43,6.87-11.59,9.15-25.73.72-4.48,1-12,1.72-27.11.66-13.14.65-16.16-1.79-18.66-4.52-4.65-14.49-4.56-20.42-.27-7.56,5.47-7.3,16.81-7.09,25.83.44,19,8.51,24.9,4.08,37.62C799.88,662.69,797,665.93,798.62,668.17Z" transform="translate(-172.61 -229.9)"/><path class="cls-15" d="M778.06,642.54c-.18.37-.36.71-.54,1.05Q777.79,643.08,778.06,642.54Z" transform="translate(-172.61 -229.9)"/><path class="cls-16" d="M777.43,643.76h0l.09-.17Z" transform="translate(-172.61 -229.9)"/><path class="cls-17" d="M778.91,640.76c-.28.63-.56,1.21-.85,1.78C778.35,642,778.63,641.38,778.91,640.76Z" transform="translate(-172.61 -229.9)"/><path class="cls-8" d="M783.16,624.14c0,.12,0,.25,0,.36,0,.6-.12,1.2-.19,1.81-.1.76-.2,1.53-.34,2.31-.09.54-.19,1.07-.31,1.6s-.21,1-.32,1.48-.28,1.16-.44,1.72-.24.88-.37,1.29-.29.94-.44,1.39c-.24.72-.48,1.4-.75,2.06-.34.9-.7,1.77-1.07,2.6-.49,1.09-1,2.09-1.48,3-11,2.26-26.45,5.2-45.13,8-55.45,8.2-83.18,11.88-93.63.11-5.17-6.34-6-15-4.35-25.24.09-.51.19-1,.28-1.56.19-1,.39-2,.64-3.07a164.6,164.6,0,0,1,6.45-20.8,2.77,2.77,0,0,0,.1-.26q1-2.76,2.12-5.57c1.93-5,4-10.06,6.07-15.15a323.83,323.83,0,0,1,56.51-91.27l70.58-7.52a337.35,337.35,0,0,1-69.62,121.5,256.71,256.71,0,0,1,72-2.12c.19.47.4,1,.6,1.57s.43,1.17.64,1.84A51.3,51.3,0,0,1,783.16,624.14Z" transform="translate(-172.61 -229.9)"/><path class="cls-18" d="M783.16,624.14c0,.12,0,.25,0,.36,0,.6-.12,1.2-.19,1.81-.1.76-.2,1.53-.34,2.31-.09.54-.19,1.07-.31,1.6s-.21,1-.32,1.48-.28,1.16-.44,1.72-.24.88-.37,1.29-.29.94-.44,1.39c-.24.72-.48,1.4-.75,2.06-.35.92-.7,1.79-1.07,2.6-.49,1.09-1,2.09-1.48,3-11,2.26-26.45,5.2-45.13,8-55.45,8.2-83.18,11.88-93.63.11-5.32-6-6.12-14.8-4.35-25.24.09-.51.19-1,.28-1.56.2-1,.41-2,.64-3.07a172.66,172.66,0,0,1,6.45-20.8,2.77,2.77,0,0,0,.1-.26q1-2.76,2.12-5.57c1.93-5,4-10.06,6.07-15.15a323.83,323.83,0,0,1,56.51-91.27l70.58-7.52a337.35,337.35,0,0,1-69.62,121.5,256.71,256.71,0,0,1,72-2.12c.19.47.4,1,.6,1.57s.43,1.18.64,1.84A51.73,51.73,0,0,1,783.16,624.14Z" transform="translate(-172.61 -229.9)"/><path class="cls-2" d="M632.09,679.67a97.89,97.89,0,0,1,25.72-5.12q-2.71-13.44-5.44-26.87a42.19,42.19,0,0,1-28,7.48q2.57,9.63,6,19.78C631,676.53,631.52,678.11,632.09,679.67Z" transform="translate(-172.61 -229.9)"/><path class="cls-1" d="M581.54,701.89a8,8,0,0,0,3.3,3.78,8.84,8.84,0,0,0,5.89,1.12c3.35-.42,14.68-.35,27.74-.23,17.5.16,38.1.43,46.68-.21,1.11-.08,2-.18,2.68-.29a5.32,5.32,0,0,0,3.41-1.81,5,5,0,0,0,1-2.35c0-.21.09-.43.11-.64,1.95-11.72-4.43-22.07-4.43-22.07a20.84,20.84,0,0,0-1.94-2.82,19.33,19.33,0,0,0-3.77-3.5,99.65,99.65,0,0,0-13.53-.31c-.49,0-1.17.06-2,.13-.29,0-.6,0-.94.06l-.51,0-1,.1c-.67.05-1.4.14-2.19.24-.4,0-.8.1-1.23.16l-1.43.19-.07,0-1.54.24-1.8.31c-3.17.56-6.84,1.34-10.95,2.43-1.4.37-2.73.74-4,1.15a90.85,90.85,0,0,0-8.91,3.22l-1.26.54-.79.35-.46.22c-.85.38-1.72.78-2.59,1.2l-1,.47-2.55,1.28c-3.39,1.74-7,3.73-11.26,6.08l-2,1.1c-.43.24-.86.49-1.31.73-2.81,1.56-7.95,4.49-7.62,8.08A3.75,3.75,0,0,0,581.54,701.89Z" transform="translate(-172.61 -229.9)"/><path class="cls-8" d="M614.42,658.56a42.43,42.43,0,0,0,20.06,2.78,43.18,43.18,0,0,0,25.27-12.06q-4.08-14-8.14-28-8.73-30.29-17.12-60.31c20.35-1.59,66.08-6.37,103.51-22.18,17-7.16,25-15.84,30.35-24.52a57.91,57.91,0,0,0,8.16-24.63c-31.6-19.92-56.57-21.79-70-21.28-3.44.12-5.79.28-9.3.6-36.89,3.31-47.24,14.28-85,24.65a123,123,0,0,0-27.49,10.83c-4.79,2.61-7.19,3.91-8.58,5.15-8.67,7.79-9.77,28.81,23,111.51C602.88,630.47,608.05,643.31,614.42,658.56Z" transform="translate(-172.61 -229.9)"/><path class="cls-13" d="M780.47,480.22c-.11,2.9-.61,6.22-3,8.57l-.85.73a.31.31,0,0,1-.12.09,70,70,0,0,1-22.3-.92c-18.08-3.76-24.5-12.93-41.93-17.2a70.44,70.44,0,0,0-27.22-1.07,235.78,235.78,0,0,1-42.6-47.19c-4.52,14.28-8.77,26.85-12.48,37.4-8.37,23.82-11.37,30.05-17.8,32.95s-13.17,1.2-27.61-4.89a343.63,343.63,0,0,1-53.07-28.23,55.83,55.83,0,0,1,5.72-20.71,54.38,54.38,0,0,1,7.21-10.9c6.58,3.72,13.89,7.51,21.91,11.15,7.7,3.49,15,6.4,21.93,8.83,10.85-36.15,18.92-64.36,24-86.31,1.65-7.18,5-22.26,17.44-34.06,2.76-2.61,8.88-8.39,16.61-10.24,9-2.16,22,.52,52.26,30.66,41,40.79,36.15,54.76,68.4,95.32C767.53,444.93,781.21,462.12,780.47,480.22Z" transform="translate(-172.61 -229.9)"/><path class="cls-19" d="M777.48,488.79l-.85.73a.31.31,0,0,1-.12.09,70.32,70.32,0,0,1-22.3-.92c-19.33-4-26.26-14.27-45.38-18a68.84,68.84,0,0,0-23.77-.3,235.78,235.78,0,0,1-42.6-47.19q3.64-11.3,7.32-22.61a40.09,40.09,0,0,0,3.38,21.21A41.87,41.87,0,0,0,670.32,440c20.83,11.29,47.68-.38,48.21,1.64.45,1.79-21.91,6.65-21.87,13.07,0,3.86,8.14,4.95,24.51,12.67,18.21,8.57,20.47,13,34.12,17.36A88.85,88.85,0,0,0,777.48,488.79Z" transform="translate(-172.61 -229.9)"/><path class="cls-20" d="M199,693.41c-2.09-3.83-.24-8.57.48-10.42,6.55-16.74,53-17.68,81.48-19.11,48.16-2.42,109.63-9.49,189.84-10.25,0,0,17.18-.16,37.36,10.85,2.14,1.17,6.65,3.71,7.84,8.44a7.6,7.6,0,0,1,.21,3.46c-1.74,7.47-21.59,5.59-23.12,11.6-1,4.06,6.44,11.1,13.87,13.86,6.57,2.45,13.23,1.6,15.31,5.91a7,7,0,0,1,.55,3.17c-.29,5.7-26.41,28.18-133.38,49.38-4.75.94-92.3,18-96.42,4.82-1.47-4.69,8.4-10.65,6-16.27-.71-1.68-3.52-5.7-26.41-5.17-25.12.57-30.8,5.61-48.32,4-1.23-.12-27-2.72-28.32-11.46-.73-4.93,6.63-10.16,8.44-11.45,9.46-6.72,17.71-3.75,21.09-9.64a10.94,10.94,0,0,0,0-10.24C220.55,696.11,203.42,701.56,199,693.41Z" transform="translate(-172.61 -229.9)"/><polygon class="cls-21" points="316.51 130.56 316.51 438.13 85.53 460.69 85.53 153.12 158.14 146.03 163.1 145.55 257.51 136.33 316.51 130.56"/><polygon class="cls-22" points="316.5 130.56 85.53 153.12 0 104.99 199.9 88.45 316.5 130.56"/><polygon class="cls-23" points="85.53 153.12 85.53 460.69 0 395.98 0 104.99 85.53 153.12"/><path class="cls-7" d="M270.94,431c8.53-1,17.08-2,25.61-2.95l25.63-2.72c17.09-1.8,34.21-3.39,51.31-5.09,17.13-1.52,34.24-3.14,51.37-4.57l25.71-2.1c8.58-.62,17.15-1.31,25.73-1.87-8.52,1.06-17.07,2-25.6,3l-25.63,2.72c-17.1,1.79-34.21,3.39-51.31,5.08-17.13,1.52-34.24,3.14-51.37,4.57l-25.71,2.1C288.1,429.77,279.53,430.47,270.94,431Z" transform="translate(-172.61 -229.9)"/><path class="cls-7" d="M331.53,382.27a94.21,94.21,0,0,1,1,9.74c.2,3.24.26,6.49.28,9.74s-.07,6.49-.27,9.74a94.52,94.52,0,0,1-1,9.74,94.49,94.49,0,0,1-1-9.74c-.2-3.25-.26-6.49-.28-9.74s.08-6.5.28-9.74A97.05,97.05,0,0,1,331.53,382.27Z" transform="translate(-172.61 -229.9)"/><path class="cls-7" d="M395.92,396.75c0,9-6.89,16.24-15.4,16.24a14.83,14.83,0,0,1-8.64-2.8,16.51,16.51,0,0,1-6.74-13.44c0-9,6.89-16.25,15.38-16.25A15,15,0,0,1,392,386,16.66,16.66,0,0,1,395.92,396.75Z" transform="translate(-172.61 -229.9)"/><path class="cls-24" d="M398.52,397.49c0,9-6.89,16.25-15.4,16.25a14.77,14.77,0,0,1-8.64-2.81,16.49,16.49,0,0,1-6.74-13.44c0-9,6.89-16.25,15.38-16.25a15,15,0,0,1,11.51,5.46A16.68,16.68,0,0,1,398.52,397.49Z" transform="translate(-172.61 -229.9)"/><path class="cls-25" d="M401.35,400.12c0,9-6.89,16.23-15.38,16.23a15,15,0,0,1-11.49-5.42,14.77,14.77,0,0,0,8.64,2.81c8.51,0,15.4-7.28,15.4-16.25a16.68,16.68,0,0,0-3.89-10.79A16.45,16.45,0,0,1,401.35,400.12Z" transform="translate(-172.61 -229.9)"/><path class="cls-7" d="M383.13,383.83a10,10,0,0,1,.93,2.77,15.47,15.47,0,0,1,0,5.54,10.12,10.12,0,0,1-.93,2.78,9.49,9.49,0,0,1-.93-2.78,14.43,14.43,0,0,1-.26-2.77,16.23,16.23,0,0,1,.26-2.77A10,10,0,0,1,383.13,383.83Z" transform="translate(-172.61 -229.9)"/><path class="cls-7" d="M456.18,391.09c0,9-6.89,16.24-15.4,16.24a14.83,14.83,0,0,1-8.64-2.8,16.51,16.51,0,0,1-6.74-13.44c0-9,6.88-16.25,15.38-16.25a15,15,0,0,1,11.51,5.46A16.7,16.7,0,0,1,456.18,391.09Z" transform="translate(-172.61 -229.9)"/><path class="cls-24" d="M458.78,391.83c0,9-6.89,16.25-15.4,16.25a14.77,14.77,0,0,1-8.64-2.81A16.49,16.49,0,0,1,428,391.83c0-9,6.89-16.25,15.38-16.25A15,15,0,0,1,454.89,381,16.68,16.68,0,0,1,458.78,391.83Z" transform="translate(-172.61 -229.9)"/><path class="cls-26" d="M461.61,394.46c0,9-6.89,16.23-15.39,16.23a15,15,0,0,1-11.48-5.42,14.77,14.77,0,0,0,8.64,2.81c8.51,0,15.4-7.28,15.4-16.25A16.68,16.68,0,0,0,454.89,381,16.45,16.45,0,0,1,461.61,394.46Z" transform="translate(-172.61 -229.9)"/><path class="cls-7" d="M443.39,378.16a9.76,9.76,0,0,1,.92,2.78,14.43,14.43,0,0,1,.26,2.77,15.26,15.26,0,0,1-.25,2.77,10,10,0,0,1-.93,2.77,9.34,9.34,0,0,1-.93-2.77,14.43,14.43,0,0,1-.26-2.77,15.28,15.28,0,0,1,.26-2.77A9.79,9.79,0,0,1,443.39,378.16Z" transform="translate(-172.61 -229.9)"/><path class="cls-7" d="M456.89,519.61a84.92,84.92,0,0,0-2.78-11.5c-9.74-31-36.21-54.83-69.67-58.71-45.87-5.32-87.53,28.88-93,76.36a88.75,88.75,0,0,0,3.1,35.76l0,0a85.24,85.24,0,0,0,39.85,50.09,80.7,80.7,0,0,0,30.14,9.71c33.47,3.88,64.68-13.24,81.25-41.21.18-.32.37-.63.55-1a89.44,89.44,0,0,0,10.58-59.58Z" transform="translate(-172.61 -229.9)"/><path class="cls-1" d="M419.23,580.75a37,37,0,0,0,8.28,3c-14.09,16.21-35.26,25.4-57.72,22.8-36.76-4.26-63-38.55-58.57-76.6a73.54,73.54,0,0,1,2.43-12c9.29-31.61,39.35-53,72.11-49.16,22.45,2.6,41,16.39,51,35.39a38.24,38.24,0,0,0-9.17,1.1,38.88,38.88,0,0,0-15.36,7.8,39.93,39.93,0,0,0-6.28,6.51,41.37,41.37,0,0,0-1.54,48.12,37.78,37.78,0,0,0,4.41,5.43A38.29,38.29,0,0,0,419.23,580.75Z" transform="translate(-172.61 -229.9)"/><path class="cls-24" d="M457.41,510.38c-9.73-31-36.2-54.84-69.67-58.71-45.87-5.32-87.53,28.88-93,76.36-4.2,36.18,13.83,69.67,43,85.89a80.7,80.7,0,0,0,30.14,9.71c33.47,3.88,64.68-13.24,81.25-41.21.19-.32.37-.63.55-1a89.34,89.34,0,0,0,7.8-71.08Zm-87.62,96.16c-32.12-3.72-56.2-30.38-58.81-62.45a72.21,72.21,0,0,1,.24-14.15c4.41-38,37.77-65.44,74.54-61.18,22.45,2.6,41,16.39,51,35.39-19.62,0-36.66,15.19-39.05,35.81a41,41,0,0,0,6.21,27,38.44,38.44,0,0,0,23.62,16.81C413.42,600,392.25,609.14,369.79,606.54Z" transform="translate(-172.61 -229.9)"/><path class="cls-7" d="M427.51,583.74a67.44,67.44,0,0,1-36.08,22.15c-.87.23-1.76.39-2.65.54s-1.77.34-2.66.47c-1.79.19-3.58.49-5.38.54a66.15,66.15,0,0,1-10.81-.22,70.69,70.69,0,0,1-20.8-5.82l-4.84-2.47c-1.55-.94-3.05-1.95-4.58-2.92l-1.14-.73-1.07-.84-2.13-1.69c-.7-.57-1.43-1.12-2.12-1.7l-1.95-1.89A72.36,72.36,0,0,1,324,581.1l-3.12-4.45c-1-1.51-1.83-3.14-2.75-4.7a72.48,72.48,0,0,1-7.26-20.44,72.81,72.81,0,0,1,4.86-42.68,73.4,73.4,0,0,1,11.69-18.33,65.74,65.74,0,0,1,16.71-13.91l2.34-1.4c.81-.42,1.64-.79,2.46-1.19l2.47-1.17,1.23-.58,1.29-.47c1.71-.6,3.42-1.25,5.15-1.82l5.3-1.33a71.33,71.33,0,0,1,21.72-1A66.88,66.88,0,0,1,407,473.76,68.09,68.09,0,0,1,437.6,503.7l.75,1.46-1.62,0A37.59,37.59,0,0,0,411,515.2a40.88,40.88,0,0,0-6.4,52.16A38.58,38.58,0,0,0,427.51,583.74Zm0,0A37.9,37.9,0,0,1,414.25,578,39.84,39.84,0,0,1,404,567.74,41.68,41.68,0,0,1,409.89,514a39.36,39.36,0,0,1,26.84-10.84l-.86,1.43A67.08,67.08,0,0,0,406,475.78,64.44,64.44,0,0,0,385.83,470a68.83,68.83,0,0,0-20.95,1l-5.1,1.3c-1.66.56-3.3,1.19-4.95,1.78l-1.24.45-1.18.57L350,476.23c-.78.38-1.58.74-2.36,1.15l-2.25,1.36a73.55,73.55,0,0,0-8.62,6l-3.91,3.53c-1.28,1.19-2.4,2.56-3.61,3.83a70.58,70.58,0,0,0-11.36,17.66,70.29,70.29,0,0,0-4.87,41.31A71.28,71.28,0,0,0,320,571c.88,1.52,1.65,3.12,2.61,4.59l3,4.37a71,71,0,0,0,7,7.91l1.88,1.87c.67.57,1.37,1.11,2.05,1.67l2.05,1.67,1,.84,1.11.72c1.47,1,2.93,2,4.42,2.91L349.8,600a69.43,69.43,0,0,0,20.27,5.93,65.9,65.9,0,0,0,21.15-.94A67.81,67.81,0,0,0,427.51,583.74Z" transform="translate(-172.61 -229.9)"/><path class="cls-7" d="M427.51,583.74a67.44,67.44,0,0,1-36.08,22.15c-.87.23-1.76.39-2.65.54s-1.77.34-2.66.47c-1.79.19-3.58.49-5.38.54a66.15,66.15,0,0,1-10.81-.22,70.69,70.69,0,0,1-20.8-5.82l-4.84-2.47c-1.55-.94-3.05-1.95-4.58-2.92l-1.14-.73-1.07-.84-2.13-1.69c-.7-.57-1.43-1.12-2.12-1.7l-1.95-1.89A72.36,72.36,0,0,1,324,581.1l-3.12-4.45c-1-1.51-1.83-3.14-2.75-4.7a72.48,72.48,0,0,1-7.26-20.44,72.81,72.81,0,0,1,4.86-42.68,73.4,73.4,0,0,1,11.69-18.33,65.74,65.74,0,0,1,16.71-13.91l2.34-1.4c.81-.42,1.64-.79,2.46-1.19l2.47-1.17,1.23-.58,1.29-.47c1.71-.6,3.42-1.25,5.15-1.82l5.3-1.33a71.33,71.33,0,0,1,21.72-1A66.88,66.88,0,0,1,407,473.76,68.09,68.09,0,0,1,437.6,503.7l.75,1.46-1.62,0A37.59,37.59,0,0,0,411,515.2a40.88,40.88,0,0,0-6.4,52.16A38.58,38.58,0,0,0,427.51,583.74Zm0,0A37.9,37.9,0,0,1,414.25,578,39.84,39.84,0,0,1,404,567.74,41.68,41.68,0,0,1,409.89,514a39.36,39.36,0,0,1,26.84-10.84l-.86,1.43A67.08,67.08,0,0,0,406,475.78,64.44,64.44,0,0,0,385.83,470a68.83,68.83,0,0,0-20.95,1l-5.1,1.3c-1.66.56-3.3,1.19-4.95,1.78l-1.24.45-1.18.57L350,476.23c-.78.38-1.58.74-2.36,1.15l-2.25,1.36a73.55,73.55,0,0,0-8.62,6l-3.91,3.53c-1.28,1.19-2.4,2.56-3.61,3.83a70.58,70.58,0,0,0-11.36,17.66,70.29,70.29,0,0,0-4.87,41.31A71.28,71.28,0,0,0,320,571c.88,1.52,1.65,3.12,2.61,4.59l3,4.37a71,71,0,0,0,7,7.91l1.88,1.87c.67.57,1.37,1.11,2.05,1.67l2.05,1.67,1,.84,1.11.72c1.47,1,2.93,2,4.42,2.91L349.8,600a69.43,69.43,0,0,0,20.27,5.93,65.9,65.9,0,0,0,21.15-.94A67.81,67.81,0,0,0,427.51,583.74Z" transform="translate(-172.61 -229.9)"/><path class="cls-24" d="M319.42,545.45a60.66,60.66,0,0,1,1.67-29.6,55.29,55.29,0,0,1,6.45-13.66,59.28,59.28,0,0,1,9.86-11.38,58.44,58.44,0,0,1,26.3-13,61.89,61.89,0,0,1,14.46-1.29,63.23,63.23,0,0,1,14.19,2.23,90.74,90.74,0,0,0-14.17-.21,72,72,0,0,0-13.79,2.39,61.28,61.28,0,0,0-12.94,5.15A58,58,0,0,0,324,516.91,75,75,0,0,0,319.42,545.45Z" transform="translate(-172.61 -229.9)"/><path class="cls-27" d="M427.51,583.74c-14.09,16.21-35.26,25.4-57.72,22.8-32.12-3.72-56.2-30.38-58.81-62.45,12.55,19.65,33.53,32.21,56.47,32.83a65.53,65.53,0,0,0,36.44-10A38.44,38.44,0,0,0,427.51,583.74Z" transform="translate(-172.61 -229.9)"/><path class="cls-20" d="M310.32,589.37A61.13,61.13,0,0,0,326,611.53c11.44,10.12,22.78,13.07,22.78,13.07,4.72,1.42,10.7,2.5,15.7,7.79a22.5,22.5,0,0,1,4,5.87c5,10.84-.45,23.36-2.33,27.68l-.12.28c-3.47,7.82-8.49,12.55-12.23,16.08a63.51,63.51,0,0,1-14.33,10.14,112.37,112.37,0,0,0,55.92,8.38c34.76-3.78,57.26-23,64.73-30-7.87,1.21-23.34,2.3-37.82-6-4.18-2.41-10.1-5.89-12.93-12.94-2.56-6.36-2.8-15.87,2.44-20.27.67-.55,3.56-2.89,6.65-2.09a4.59,4.59,0,0,1,2.61,1.6c1.36,1.86,0,3.78.16,7.37.07,1.71.22,5.33,2.67,7.26a7.42,7.42,0,0,0,8.64-.14c3-2.28,2.77-6.34,2.69-8.06-.16-3.43-1.58-4.15-2.15-7.49-.69-4,.59-7.33,1.8-10.33,2.41-6,5.91-9.4,8.36-12.21,6.71-7.69,9.62-15.56,11.93-21.8a65.6,65.6,0,0,0,3.68-27.63c-4.11,7.95-18.92,34.12-50.53,46.61C358.34,624.48,313.11,591.48,310.32,589.37Z" transform="translate(-172.61 -229.9)"/><path class="cls-24" d="M460.19,521.88a84.78,84.78,0,0,0-2.78-11.49c-9.73-31-36.2-54.84-69.67-58.72-45.87-5.31-87.53,28.88-93,76.36a88.38,88.38,0,0,0,3.1,35.76l0,.05a85.25,85.25,0,0,0,39.84,50.09,80.87,80.87,0,0,0,30.14,9.7c33.47,3.88,64.68-13.24,81.25-41.21l.55-.95a89.48,89.48,0,0,0,10.58-59.59ZM311,544.1a72.2,72.2,0,0,1,.24-14.15c4.41-38.05,37.77-65.45,74.54-61.19,22.45,2.6,41,16.39,51,35.4a34.46,34.46,0,0,0-4.07.22c-17.86,1.88-32.76,16.4-35,35.59a41,41,0,0,0,2.37,19.34,39.32,39.32,0,0,0,27.46,24.43,67.25,67.25,0,0,1-57.72,22.8c-26.72-3.09-47.88-22.07-55.75-46.82A71.67,71.67,0,0,1,311,544.1Z" transform="translate(-172.61 -229.9)"/><path class="cls-28" d="M435.11,513.09c-1.61.19-15.09,2-22.63,14.31-.82,1.32-7.36,12.4-2.61,25.33,5.86,15.95,23.27,19.33,24,19.46a53.06,53.06,0,0,0,1.22-59.1Z" transform="translate(-172.61 -229.9)"/><path class="cls-29" d="M417.29,682.5c-4.79-2.7-7.12-4.62-8.37-6-7.69-8.68-6.21-20.59-7.73-20.62-1.9,0-3.37,18.52-4.73,18.47-1,0-.61-10.09-3.41-23.21-1.64-7.67-5-19.31-7.11-19.1-1.22.13-1.53,5-3,22.55-.94,11.46-1.41,17.2-1.54,17.56-7.68,20.71-54.53,19-54.54,25.32,0,3.35,13.13,5.86,20.18,7.23,11.94,2.31,28.3,4.14,59.27,1.49,6.61-.56,32.13-2.74,32.13-5.73,0-2.49-17-3.9-16.93-5.72.16-2.55,33.45-1.75,33.6-4.35,0-.55-1.45-1.06-2.47-1.38C438,684.31,427.64,688.33,417.29,682.5Z" transform="translate(-172.61 -229.9)"/><path class="cls-29" d="M220.2,727c-.77.92-1.53,1.82-1.34,2.63.11.49.78,1.81,16,2.8,3.1.2,6.17.35,7,.39q3.51.18,7,.28c4.7.21,9.41.25,14.13.4-5.3.86-10,1.56-14.06,2.13,0,0-18.88,2.65-28.82-.15a11.56,11.56,0,0,1-2.85-1.27,8.71,8.71,0,0,1-1.14-.84,4.79,4.79,0,0,1-1-1.29,3.72,3.72,0,0,1-.44-1.91,4.21,4.21,0,0,1,1.28-2.69,9.43,9.43,0,0,1,3.39-2.2,9.91,9.91,0,0,1,4.28-.57A7.33,7.33,0,0,0,220.2,727Z" transform="translate(-172.61 -229.9)"/><path class="cls-29" d="M301.52,737a40.4,40.4,0,0,1,7.53-1.84,15.12,15.12,0,0,1,4-.07,7.15,7.15,0,0,1,2.15.62,4.32,4.32,0,0,1,1.9,1.69,3.78,3.78,0,0,1,.48,1.27l.11.67c0,.21,0,.41,0,.62a5.4,5.4,0,0,1-.18,1.19,6.69,6.69,0,0,1-.32,1.07,27.3,27.3,0,0,1-1.75,3.68c-.61,1.14-1.24,2.22-1.72,3.26a4.5,4.5,0,0,0-.58,2.5c0,.33.56.78,1.47,1.2a15.68,15.68,0,0,0,3.16.93,48.43,48.43,0,0,0,7.25.69c5,.17,10,0,15.06-.27s10.11-.59,15.18-1,10.14-.85,15.22-1.22c10.16-.84,20.34-1.72,30.6-2.18-10,2.54-20,4.51-30.13,6.09-5.06.84-10.15,1.45-15.24,2.07s-10.23,1-15.38,1.28a141.9,141.9,0,0,1-15.57,0,50.59,50.59,0,0,1-7.95-1.14,17.59,17.59,0,0,1-4.1-1.46,8.31,8.31,0,0,1-2.06-1.54,4.94,4.94,0,0,1-1.37-2.75c0-.26-.06-.52-.08-.78s0-.47.07-.7a5.65,5.65,0,0,1,.29-1.27,11.52,11.52,0,0,1,.92-2.06c.69-1.23,1.43-2.31,2.15-3.35a24.61,24.61,0,0,0,1.89-3.05,3.38,3.38,0,0,0,.43-2.56,3.12,3.12,0,0,0-2.26-1.57,16.56,16.56,0,0,0-3.59-.45A54.36,54.36,0,0,0,301.52,737Z" transform="translate(-172.61 -229.9)"/></svg>